<?xml version="1.0" encoding="UTF-8" standalone="no"?>
<svg
   xmlns:dc="http://purl.org/dc/elements/1.1/"
   xmlns:cc="http://creativecommons.org/ns#"
   xmlns:rdf="http://www.w3.org/1999/02/22-rdf-syntax-ns#"
   xmlns:svg="http://www.w3.org/2000/svg"
   xmlns="http://www.w3.org/2000/svg"
   xmlns:sodipodi="http://sodipodi.sourceforge.net/DTD/sodipodi-0.dtd"
   xmlns:inkscape="http://www.inkscape.org/namespaces/inkscape"
   width="160mm"
   height="90mm"
   viewBox="0 0 16000 9000"
   version="1.1"
   stroke-width="28.222"
   stroke-linejoin="round"
   xml:space="preserve"
   id="svg344"
   sodipodi:docname="disgenet-subsets.svg"
   inkscape:version="0.92.1 r15371"><metadata
     id="metadata350"><rdf:RDF><cc:Work
         rdf:about=""><dc:format>image/svg+xml</dc:format><dc:type
           rdf:resource="http://purl.org/dc/dcmitype/StillImage" /><dc:title></dc:title></cc:Work></rdf:RDF></metadata><defs
     id="defs348" /><sodipodi:namedview
     pagecolor="#ffffff"
     bordercolor="#666666"
     borderopacity="1"
     objecttolerance="10"
     gridtolerance="10"
     guidetolerance="10"
     inkscape:pageopacity="0"
     inkscape:pageshadow="2"
     inkscape:window-width="1920"
     inkscape:window-height="1056"
     id="namedview346"
     showgrid="false"
     inkscape:zoom="1.5200954"
     inkscape:cx="423.26418"
     inkscape:cy="198.83025"
     inkscape:window-x="0"
     inkscape:window-y="24"
     inkscape:window-maximized="1"
     inkscape:current-layer="svg344" /><path
     fill="rgb(255,255,255)"
     stroke="none"
     d="M 8000,8999 L 0,8999 0,0 15999,0 15999,8999 8000,8999 Z"
     id="path2" /><path
     fill="none"
     stroke="rgb(179,179,179)"
     stroke-linejoin="round"
     d="M 8935,7718 L 2191,7718 2191,353 15679,353 15679,7718 8935,7718 Z"
     id="path4" /><path
     fill="none"
     stroke="rgb(179,179,179)"
     stroke-linejoin="round"
     d="M 15679,7717 L 2191,7717"
     id="path6" /><path
     fill="none"
     stroke="rgb(179,179,179)"
     stroke-linejoin="round"
     d="M 15679,6980 L 2191,6980"
     id="path8"
     style="stroke:#000000;stroke-opacity:1" /><path
     fill="none"
     stroke="rgb(179,179,179)"
     stroke-linejoin="round"
     d="M 15679,352 L 2191,352"
     id="path26" /><path
     fill="none"
     stroke="rgb(179,179,179)"
     stroke-linejoin="round"
     d="M 2191,7867 L 2191,7717"
     id="path28" /><path
     fill="none"
     stroke="rgb(179,179,179)"
     stroke-linejoin="round"
     d="M 2191,7867 L 2191,7717"
     id="path30" /><path
     fill="none"
     stroke="rgb(179,179,179)"
     stroke-linejoin="round"
     d="M 2865,7867 L 2865,7717"
     id="path32" /><path
     fill="none"
     stroke="rgb(179,179,179)"
     stroke-linejoin="round"
     d="M 2865,7867 L 2865,7717"
     id="path34" /><path
     fill="none"
     stroke="rgb(179,179,179)"
     stroke-linejoin="round"
     d="M 3539,7867 L 3539,7717"
     id="path36" /><path
     fill="none"
     stroke="rgb(179,179,179)"
     stroke-linejoin="round"
     d="M 3539,7867 L 3539,7717"
     id="path38" /><path
     fill="none"
     stroke="rgb(179,179,179)"
     stroke-linejoin="round"
     d="M 4214,7867 L 4214,7717"
     id="path40" /><path
     fill="none"
     stroke="rgb(179,179,179)"
     stroke-linejoin="round"
     d="M 4214,7867 L 4214,7717"
     id="path42" /><path
     fill="none"
     stroke="rgb(179,179,179)"
     stroke-linejoin="round"
     d="M 4888,7867 L 4888,7717"
     id="path44" /><path
     fill="none"
     stroke="rgb(179,179,179)"
     stroke-linejoin="round"
     d="M 4888,7867 L 4888,7717"
     id="path46" /><path
     fill="none"
     stroke="rgb(179,179,179)"
     stroke-linejoin="round"
     d="M 5563,7867 L 5563,7717"
     id="path48" /><path
     fill="none"
     stroke="rgb(179,179,179)"
     stroke-linejoin="round"
     d="M 5563,7867 L 5563,7717"
     id="path50" /><path
     fill="none"
     stroke="rgb(179,179,179)"
     stroke-linejoin="round"
     d="M 6237,7867 L 6237,7717"
     id="path52" /><path
     fill="none"
     stroke="rgb(179,179,179)"
     stroke-linejoin="round"
     d="M 6237,7867 L 6237,7717"
     id="path54" /><path
     fill="none"
     stroke="rgb(179,179,179)"
     stroke-linejoin="round"
     d="M 6912,7867 L 6912,7717"
     id="path56" /><path
     fill="none"
     stroke="rgb(179,179,179)"
     stroke-linejoin="round"
     d="M 6912,7867 L 6912,7717"
     id="path58" /><path
     fill="none"
     stroke="rgb(179,179,179)"
     stroke-linejoin="round"
     d="M 7586,7867 L 7586,7717"
     id="path60" /><path
     fill="none"
     stroke="rgb(179,179,179)"
     stroke-linejoin="round"
     d="M 7586,7867 L 7586,7717"
     id="path62" /><path
     fill="none"
     stroke="rgb(179,179,179)"
     stroke-linejoin="round"
     d="M 8260,7867 L 8260,7717"
     id="path64" /><path
     fill="none"
     stroke="rgb(179,179,179)"
     stroke-linejoin="round"
     d="M 8260,7867 L 8260,7717"
     id="path66" /><path
     fill="none"
     stroke="rgb(179,179,179)"
     stroke-linejoin="round"
     d="M 8934,7867 L 8934,7717"
     id="path68" /><path
     fill="none"
     stroke="rgb(179,179,179)"
     stroke-linejoin="round"
     d="M 8934,7867 L 8934,7717"
     id="path70" /><path
     fill="none"
     stroke="rgb(179,179,179)"
     stroke-linejoin="round"
     d="M 9608,7867 L 9608,7717"
     id="path72" /><path
     fill="none"
     stroke="rgb(179,179,179)"
     stroke-linejoin="round"
     d="M 9608,7867 L 9608,7717"
     id="path74" /><path
     fill="none"
     stroke="rgb(179,179,179)"
     stroke-linejoin="round"
     d="M 10283,7867 L 10283,7717"
     id="path76" /><path
     fill="none"
     stroke="rgb(179,179,179)"
     stroke-linejoin="round"
     d="M 10283,7867 L 10283,7717"
     id="path78" /><path
     fill="none"
     stroke="rgb(179,179,179)"
     stroke-linejoin="round"
     d="M 10957,7867 L 10957,7717"
     id="path80" /><path
     fill="none"
     stroke="rgb(179,179,179)"
     stroke-linejoin="round"
     d="M 10957,7867 L 10957,7717"
     id="path82" /><path
     fill="none"
     stroke="rgb(179,179,179)"
     stroke-linejoin="round"
     d="M 11632,7867 L 11632,7717"
     id="path84" /><path
     fill="none"
     stroke="rgb(179,179,179)"
     stroke-linejoin="round"
     d="M 11632,7867 L 11632,7717"
     id="path86" /><path
     fill="none"
     stroke="rgb(179,179,179)"
     stroke-linejoin="round"
     d="M 12306,7867 L 12306,7717"
     id="path88" /><path
     fill="none"
     stroke="rgb(179,179,179)"
     stroke-linejoin="round"
     d="M 12306,7867 L 12306,7717"
     id="path90" /><path
     fill="none"
     stroke="rgb(179,179,179)"
     stroke-linejoin="round"
     d="M 12981,7867 L 12981,7717"
     id="path92" /><path
     fill="none"
     stroke="rgb(179,179,179)"
     stroke-linejoin="round"
     d="M 12981,7867 L 12981,7717"
     id="path94" /><path
     fill="none"
     stroke="rgb(179,179,179)"
     stroke-linejoin="round"
     d="M 13655,7867 L 13655,7717"
     id="path96" /><path
     fill="none"
     stroke="rgb(179,179,179)"
     stroke-linejoin="round"
     d="M 13655,7867 L 13655,7717"
     id="path98" /><path
     fill="none"
     stroke="rgb(179,179,179)"
     stroke-linejoin="round"
     d="M 14330,7867 L 14330,7717"
     id="path100" /><path
     fill="none"
     stroke="rgb(179,179,179)"
     stroke-linejoin="round"
     d="M 14330,7867 L 14330,7717"
     id="path102" /><path
     fill="none"
     stroke="rgb(179,179,179)"
     stroke-linejoin="round"
     d="M 15004,7867 L 15004,7717"
     id="path104" /><path
     fill="none"
     stroke="rgb(179,179,179)"
     stroke-linejoin="round"
     d="M 15004,7867 L 15004,7717"
     id="path106" /><path
     fill="none"
     stroke="rgb(179,179,179)"
     stroke-linejoin="round"
     d="M 15679,7867 L 15679,7717"
     id="path108" /><path
     fill="none"
     stroke="rgb(179,179,179)"
     stroke-linejoin="round"
     d="M 15679,7867 L 15679,7717"
     id="path110" /><path
     fill="none"
     stroke="rgb(179,179,179)"
     stroke-linejoin="round"
     d="M 2191,7717 L 15679,7717"
     id="path112" /><path
     fill="none"
     stroke="rgb(179,179,179)"
     stroke-linejoin="round"
     d="M 2041,7717 L 2191,7717"
     id="path114" /><path
     fill="none"
     stroke="rgb(179,179,179)"
     stroke-linejoin="round"
     d="M 2041,7717 L 2191,7717"
     id="path116" /><path
     fill="none"
     stroke="rgb(179,179,179)"
     stroke-linejoin="round"
     d="M 2041,6980 L 2191,6980"
     id="path118" /><path
     fill="none"
     stroke="rgb(179,179,179)"
     stroke-linejoin="round"
     d="M 2041,6980 L 2191,6980"
     id="path120" /><path
     fill="none"
     stroke="rgb(179,179,179)"
     stroke-linejoin="round"
     d="M 2041,6243 L 2191,6243"
     id="path122" /><path
     fill="none"
     stroke="rgb(179,179,179)"
     stroke-linejoin="round"
     d="M 2041,6243 L 2191,6243"
     id="path124" /><path
     fill="none"
     stroke="rgb(179,179,179)"
     stroke-linejoin="round"
     d="M 2041,5507 L 2191,5507"
     id="path126" /><path
     fill="none"
     stroke="rgb(179,179,179)"
     stroke-linejoin="round"
     d="M 2041,5507 L 2191,5507"
     id="path128" /><path
     fill="none"
     stroke="rgb(179,179,179)"
     stroke-linejoin="round"
     d="M 2041,4770 L 2191,4770"
     id="path130" /><path
     fill="none"
     stroke="rgb(179,179,179)"
     stroke-linejoin="round"
     d="M 2041,4770 L 2191,4770"
     id="path132" /><path
     fill="none"
     stroke="rgb(179,179,179)"
     stroke-linejoin="round"
     d="M 2041,4035 L 2191,4035"
     id="path134" /><path
     fill="none"
     stroke="rgb(179,179,179)"
     stroke-linejoin="round"
     d="M 2041,4035 L 2191,4035"
     id="path136" /><path
     fill="none"
     stroke="rgb(179,179,179)"
     stroke-linejoin="round"
     d="M 2041,3298 L 2191,3298"
     id="path138" /><path
     fill="none"
     stroke="rgb(179,179,179)"
     stroke-linejoin="round"
     d="M 2041,3298 L 2191,3298"
     id="path140" /><path
     fill="none"
     stroke="rgb(179,179,179)"
     stroke-linejoin="round"
     d="M 2041,2561 L 2191,2561"
     id="path142" /><path
     fill="none"
     stroke="rgb(179,179,179)"
     stroke-linejoin="round"
     d="M 2041,2561 L 2191,2561"
     id="path144" /><path
     fill="none"
     stroke="rgb(179,179,179)"
     stroke-linejoin="round"
     d="M 2041,1825 L 2191,1825"
     id="path146" /><path
     fill="none"
     stroke="rgb(179,179,179)"
     stroke-linejoin="round"
     d="M 2041,1825 L 2191,1825"
     id="path148" /><path
     fill="none"
     stroke="rgb(179,179,179)"
     stroke-linejoin="round"
     d="M 2041,1088 L 2191,1088"
     id="path150" /><path
     fill="none"
     stroke="rgb(179,179,179)"
     stroke-linejoin="round"
     d="M 2041,1088 L 2191,1088"
     id="path152" /><path
     fill="none"
     stroke="rgb(179,179,179)"
     stroke-linejoin="round"
     d="M 2041,352 L 2191,352"
     id="path154" /><path
     fill="none"
     stroke="rgb(179,179,179)"
     stroke-linejoin="round"
     d="M 2041,352 L 2191,352"
     id="path156" /><path
     fill="none"
     stroke="rgb(179,179,179)"
     stroke-linejoin="round"
     d="M 2191,7717 L 2191,352"
     id="path158" /><path
     fill="rgb(170,240,170)"
     stroke="none"
     d="M 11800,7717 L 12138,7717 12138,7246 11800,7246 11800,7717 Z"
     id="path160" /><path
     fill="none"
     stroke="rgb(0,0,0)"
     stroke-linejoin="round"
     d="M 11800,7717 L 12138,7717 12138,7246 11800,7246 11800,7717 Z"
     id="path162" /><path
     fill="rgb(170,240,170)"
     stroke="none"
     d="M 11126,7717 L 11463,7717 11463,7327 11126,7327 11126,7717 Z"
     id="path164" /><path
     fill="none"
     stroke="rgb(0,0,0)"
     stroke-linejoin="round"
     d="M 11126,7717 L 11463,7717 11463,7327 11126,7327 11126,7717 Z"
     id="path166" /><path
     fill="rgb(170,240,170)"
     stroke="none"
     d="M 10452,7717 L 10789,7717 10789,7351 10452,7351 10452,7717 Z"
     id="path168" /><path
     fill="none"
     stroke="rgb(0,0,0)"
     stroke-linejoin="round"
     d="M 10452,7717 L 10789,7717 10789,7351 10452,7351 10452,7717 Z"
     id="path170" /><path
     fill="rgb(170,240,170)"
     stroke="none"
     d="M 9777,7717 L 10114,7717 10114,7432 9777,7432 9777,7717 Z"
     id="path172" /><path
     fill="none"
     stroke="rgb(0,0,0)"
     stroke-linejoin="round"
     d="M 9777,7717 L 10114,7717 10114,7432 9777,7432 9777,7717 Z"
     id="path174" /><path
     fill="rgb(170,240,170)"
     stroke="none"
     d="M 9103,7717 L 9440,7717 9440,7572 9103,7572 9103,7717 Z"
     id="path176" /><path
     fill="none"
     stroke="rgb(0,0,0)"
     stroke-linejoin="round"
     d="M 9103,7717 L 9440,7717 9440,7572 9103,7572 9103,7717 Z"
     id="path178" /><path
     fill="rgb(170,240,170)"
     stroke="none"
     d="M 8428,7717 L 8765,7717 8765,7617 8428,7617 8428,7717 Z"
     id="path180" /><path
     fill="none"
     stroke="rgb(0,0,0)"
     stroke-linejoin="round"
     d="M 8428,7717 L 8765,7717 8765,7617 8428,7617 8428,7717 Z"
     id="path182" /><path
     fill="rgb(170,240,170)"
     stroke="none"
     d="M 7755,7717 L 8091,7717 8091,7632 7755,7632 7755,7717 Z"
     id="path184" /><path
     fill="none"
     stroke="rgb(0,0,0)"
     stroke-linejoin="round"
     d="M 7755,7717 L 8091,7717 8091,7632 7755,7632 7755,7717 Z"
     id="path186" /><path
     fill="rgb(170,240,170)"
     stroke="none"
     d="M 7080,7717 L 7417,7717 7417,7694 7080,7694 7080,7717 Z"
     id="path188" /><path
     fill="none"
     stroke="rgb(0,0,0)"
     stroke-linejoin="round"
     d="M 7080,7717 L 7417,7717 7417,7694 7080,7694 7080,7717 Z"
     id="path190" /><path
     fill="rgb(170,240,170)"
     stroke="none"
     d="M 6406,7717 L 6743,7717 6743,7706 6406,7706 6406,7717 Z"
     id="path192" /><path
     fill="none"
     stroke="rgb(0,0,0)"
     stroke-linejoin="round"
     d="M 6406,7717 L 6743,7717 6743,7706 6406,7706 6406,7717 Z"
     id="path194" /><path
     fill="rgb(170,240,170)"
     stroke="none"
     d="M 5731,7717 L 6069,7717 6069,7707 5731,7707 5731,7717 Z"
     id="path196" /><path
     fill="none"
     stroke="rgb(0,0,0)"
     stroke-linejoin="round"
     d="M 5731,7717 L 6069,7717 6069,7707 5731,7707 5731,7717 Z"
     id="path198" /><path
     fill="rgb(170,240,170)"
     stroke="none"
     d="M 5057,7717 L 5394,7717 5394,7709 5057,7709 5057,7717 Z"
     id="path200" /><path
     fill="none"
     stroke="rgb(0,0,0)"
     stroke-linejoin="round"
     d="M 5057,7717 L 5394,7717 5394,7709 5057,7709 5057,7717 Z"
     id="path202" /><path
     fill="rgb(170,240,170)"
     stroke="none"
     d="M 4382,7717 L 4720,7717 4720,7713 4382,7713 4382,7717 Z"
     id="path204" /><path
     fill="none"
     stroke="rgb(0,0,0)"
     stroke-linejoin="round"
     d="M 4382,7717 L 4720,7717 4720,7713 4382,7713 4382,7717 Z"
     id="path206" /><path
     fill="rgb(170,240,170)"
     stroke="none"
     d="M 3708,7717 L 4045,7717 4045,7714 3708,7714 3708,7717 Z"
     id="path208" /><path
     fill="none"
     stroke="rgb(0,0,0)"
     stroke-linejoin="round"
     d="M 3708,7717 L 4045,7717 4045,7714 3708,7714 3708,7717 Z"
     id="path210" /><path
     fill="rgb(170,240,170)"
     stroke="none"
     d="M 3034,7717 L 3371,7717 3371,7714 3034,7714 3034,7717 Z"
     id="path212" /><path
     fill="none"
     stroke="rgb(0,0,0)"
     stroke-linejoin="round"
     d="M 3034,7717 L 3371,7717 3371,7714 3034,7714 3034,7717 Z"
     id="path214" /><path
     fill="rgb(170,240,170)"
     stroke="none"
     d="M 2359,7717 L 2696,7717 2696,7716 2359,7716 2359,7717 Z"
     id="path216" /><path
     fill="none"
     stroke="rgb(0,0,0)"
     stroke-linejoin="round"
     d="M 2359,7717 L 2696,7717 2696,7716 2359,7716 2359,7717 Z"
     id="path218" /><path
     fill="rgb(255,200,190)"
     stroke="none"
     d="M 15173,7717 L 15510,7717 15510,1143 15173,1143 15173,7717 Z"
     id="path220" /><path
     fill="none"
     stroke="rgb(0,0,0)"
     stroke-linejoin="round"
     d="M 15173,7717 L 15510,7717 15510,1143 15173,1143 15173,7717 Z"
     id="path222" /><path
     fill="rgb(255,200,190)"
     stroke="none"
     d="M 14498,7717 L 14835,7717 14835,1143 14498,1143 14498,7717 Z"
     id="path224" /><path
     fill="none"
     stroke="rgb(0,0,0)"
     stroke-linejoin="round"
     d="M 14498,7717 L 14835,7717 14835,1143 14498,1143 14498,7717 Z"
     id="path226" /><path
     fill="rgb(255,200,190)"
     stroke="none"
     d="M 13824,7717 L 14161,7717 14161,1143 13824,1143 13824,7717 Z"
     id="path228" /><path
     fill="none"
     stroke="rgb(0,0,0)"
     stroke-linejoin="round"
     d="M 13824,7717 L 14161,7717 14161,1143 13824,1143 13824,7717 Z"
     id="path230" /><path
     fill="rgb(255,200,190)"
     stroke="none"
     d="M 13149,7717 L 13487,7717 13487,6200 13149,6200 13149,7717 Z"
     id="path232" /><path
     fill="none"
     stroke="rgb(0,0,0)"
     stroke-linejoin="round"
     d="M 13149,7717 L 13487,7717 13487,6200 13149,6200 13149,7717 Z"
     id="path234" /><path
     fill="rgb(255,200,190)"
     stroke="none"
     d="M 12475,7717 L 12812,7717 12812,6805 12475,6805 12475,7717 Z"
     id="path236" /><path
     fill="none"
     stroke="rgb(0,0,0)"
     stroke-linejoin="round"
     d="M 12475,7717 L 12812,7717 12812,6805 12475,6805 12475,7717 Z"
     id="path238" /><text
     class="TextShape"
     id="text246"><tspan
       class="TextParagraph"
       font-family="Liberation Sans, sans-serif"
       font-size="353px"
       font-weight="400"
       id="tspan244"><tspan
         class="TextPosition"
         x="1465"
         y="7837"
         id="tspan242"><tspan
           fill="rgb(0,0,0)"
           stroke="none"
           id="tspan240">0.0</tspan></tspan></tspan></text>
<text
     class="TextShape"
     id="text254"><tspan
       class="TextParagraph"
       font-family="Liberation Sans, sans-serif"
       font-size="353px"
       font-weight="400"
       id="tspan252"><tspan
         class="TextPosition"
         x="1465"
         y="7100"
         id="tspan250"><tspan
           fill="rgb(0,0,0)"
           stroke="none"
           id="tspan248">1.0</tspan></tspan></tspan></text>
<text
     class="TextShape"
     id="text262"><tspan
       class="TextParagraph"
       font-family="Liberation Sans, sans-serif"
       font-size="353px"
       font-weight="400"
       id="tspan260"><tspan
         class="TextPosition"
         x="1465"
         y="6363"
         id="tspan258"><tspan
           fill="rgb(0,0,0)"
           stroke="none"
           id="tspan256">2.0</tspan></tspan></tspan></text>
<text
     class="TextShape"
     id="text270"><tspan
       class="TextParagraph"
       font-family="Liberation Sans, sans-serif"
       font-size="353px"
       font-weight="400"
       id="tspan268"><tspan
         class="TextPosition"
         x="1465"
         y="5627"
         id="tspan266"><tspan
           fill="rgb(0,0,0)"
           stroke="none"
           id="tspan264">3.0</tspan></tspan></tspan></text>
<text
     class="TextShape"
     id="text278"><tspan
       class="TextParagraph"
       font-family="Liberation Sans, sans-serif"
       font-size="353px"
       font-weight="400"
       id="tspan276"><tspan
         class="TextPosition"
         x="1465"
         y="4890"
         id="tspan274"><tspan
           fill="rgb(0,0,0)"
           stroke="none"
           id="tspan272">4.0</tspan></tspan></tspan></text>
<text
     class="TextShape"
     id="text286"><tspan
       class="TextParagraph"
       font-family="Liberation Sans, sans-serif"
       font-size="353px"
       font-weight="400"
       id="tspan284"><tspan
         class="TextPosition"
         x="1465"
         y="4154"
         id="tspan282"><tspan
           fill="rgb(0,0,0)"
           stroke="none"
           id="tspan280">5.0</tspan></tspan></tspan></text>
<text
     class="TextShape"
     id="text294"><tspan
       class="TextParagraph"
       font-family="Liberation Sans, sans-serif"
       font-size="353px"
       font-weight="400"
       id="tspan292"><tspan
         class="TextPosition"
         x="1465"
         y="3417"
         id="tspan290"><tspan
           fill="rgb(0,0,0)"
           stroke="none"
           id="tspan288">6.0</tspan></tspan></tspan></text>
<text
     class="TextShape"
     id="text302"><tspan
       class="TextParagraph"
       font-family="Liberation Sans, sans-serif"
       font-size="353px"
       font-weight="400"
       id="tspan300"><tspan
         class="TextPosition"
         x="1465"
         y="2680"
         id="tspan298"><tspan
           fill="rgb(0,0,0)"
           stroke="none"
           id="tspan296">7.0</tspan></tspan></tspan></text>
<text
     class="TextShape"
     id="text310"><tspan
       class="TextParagraph"
       font-family="Liberation Sans, sans-serif"
       font-size="353px"
       font-weight="400"
       id="tspan308"><tspan
         class="TextPosition"
         x="1465"
         y="1944"
         id="tspan306"><tspan
           fill="rgb(0,0,0)"
           stroke="none"
           id="tspan304">8.0</tspan></tspan></tspan></text>
<text
     class="TextShape"
     id="text318"><tspan
       class="TextParagraph"
       font-family="Liberation Sans, sans-serif"
       font-size="353px"
       font-weight="400"
       id="tspan316"><tspan
         class="TextPosition"
         x="1465"
         y="1207"
         id="tspan314"><tspan
           fill="rgb(0,0,0)"
           stroke="none"
           id="tspan312">9.0</tspan></tspan></tspan></text>
<text
     class="TextShape"
     id="text326"><tspan
       class="TextParagraph"
       font-family="Liberation Sans, sans-serif"
       font-size="353px"
       font-weight="400"
       id="tspan324"><tspan
         class="TextPosition"
         x="1280"
         y="471"
         id="tspan322"><tspan
           fill="rgb(0,0,0)"
           stroke="none"
           id="tspan320">10.0</tspan></tspan></tspan></text>
<text
     class="TextShape"
     id="text334"><tspan
       class="TextParagraph"
       font-family="Liberation Sans, sans-serif"
       font-size="318px"
       font-weight="400"
       id="tspan332"><tspan
         class="TextPosition"
         x="6389"
         y="8431"
         id="tspan330"><tspan
           fill="rgb(0,0,0)"
           stroke="none"
           id="tspan328">used subsets (sorted by size)</tspan></tspan></tspan></text>
<text
     class="TextShape"
     transform="translate(811,7156) rotate(-90) translate(-811,-7156)"
     id="text342"><tspan
       class="TextParagraph"
       font-family="Liberation Sans, sans-serif"
       font-size="318px"
       font-weight="400"
       id="tspan340"><tspan
         class="TextPosition"
         x="811"
         y="7156"
         id="tspan338"><tspan
           fill="rgb(0,0,0)"
           stroke="none"
           id="tspan336">relative size to decontextualized full dataset</tspan></tspan></tspan></text>
</svg>