<?xml version="1.0" encoding="UTF-8" standalone="no"?>
<!-- Created with Inkscape (http://www.inkscape.org/) -->

<svg
   xmlns:dc="http://purl.org/dc/elements/1.1/"
   xmlns:cc="http://creativecommons.org/ns#"
   xmlns:rdf="http://www.w3.org/1999/02/22-rdf-syntax-ns#"
   xmlns:svg="http://www.w3.org/2000/svg"
   xmlns="http://www.w3.org/2000/svg"
   xmlns:sodipodi="http://sodipodi.sourceforge.net/DTD/sodipodi-0.dtd"
   xmlns:inkscape="http://www.inkscape.org/namespaces/inkscape"
   version="1.1"
   id="svg2"
   xml:space="preserve"
   width="638.66669"
   height="234.66667"
   viewBox="0 0 638.66669 234.66667"
   sodipodi:docname="servers.svg"
   inkscape:version="0.92.1 r15371"><metadata
     id="metadata8"><rdf:RDF><cc:Work
         rdf:about=""><dc:format>image/svg+xml</dc:format><dc:type
           rdf:resource="http://purl.org/dc/dcmitype/StillImage" /><dc:title></dc:title></cc:Work></rdf:RDF></metadata><defs
     id="defs6"><clipPath
       clipPathUnits="userSpaceOnUse"
       id="clipPath18"><path
         d="M 0,0.2 H 479 V 175.9 H 0 Z"
         id="path16"
         inkscape:connector-curvature="0"
         style="clip-rule:evenodd" /></clipPath></defs><sodipodi:namedview
     pagecolor="#ffffff"
     bordercolor="#666666"
     borderopacity="1"
     objecttolerance="10"
     gridtolerance="10"
     guidetolerance="10"
     inkscape:pageopacity="0"
     inkscape:pageshadow="2"
     inkscape:window-width="1920"
     inkscape:window-height="1056"
     id="namedview4"
     showgrid="false"
     inkscape:zoom="0.53235906"
     inkscape:cx="319.33334"
     inkscape:cy="117.33334"
     inkscape:window-x="0"
     inkscape:window-y="24"
     inkscape:window-maximized="1"
     inkscape:current-layer="g10" /><g
     id="g10"
     inkscape:groupmode="layer"
     inkscape:label="servers"
     transform="matrix(1.3333333,0,0,-1.3333333,0,234.66667)"><g
       id="g12"><g
         id="g14"
         clip-path="url(#clipPath18)"><path
           d="M 0,176 H 479 V 0.3 H 0 Z"
           style="fill:#ffffff;fill-opacity:1;fill-rule:evenodd;stroke:none"
           id="path20"
           inkscape:connector-curvature="0" /><path
           d="m 104.9,78.8 73.7,-62.4 h 85 l 124.7,59.5 2.9,57.6 -113.4,25.5 -167.2,-2.8 z"
           style="fill:#cccccc;fill-opacity:1;fill-rule:evenodd;stroke:none"
           id="path22"
           inkscape:connector-curvature="0" /><g
           id="g24"><path
             d="m 104.9,78.8 73.7,-62.4 h 85 l 124.7,59.5 2.9,57.6 -113.4,25.5 -167.2,-2.8 z"
             style="fill:none;stroke:#cccccc;stroke-width:28.2999897;stroke-linecap:butt;stroke-linejoin:round;stroke-miterlimit:10;stroke-dasharray:none;stroke-opacity:1"
             id="path26"
             inkscape:connector-curvature="0" /></g><path
           d="m 189.9,105.4 c 17.7,0 31.2,-5.9 31.2,-13.6 0,-7.7 -13.5,-13.6 -31.2,-13.6 -17.6,0 -31.2,5.9 -31.2,13.6 0,7.7 13.6,13.6 31.2,13.6 z m -31.2,0 z m 62.4,-27.2 z"
           style="fill:#999999;fill-opacity:1;fill-rule:evenodd;stroke:none"
           id="path28"
           inkscape:connector-curvature="0" /><path
           d="m 245.2,100.9 c 36.2,0 63.8,-8.4 63.8,-19.3 0,-10.9 -27.6,-19.3 -63.8,-19.3 -36.2,0 -63.8,8.4 -63.8,19.3 0,10.9 27.6,19.3 63.8,19.3 z m -63.8,0 z M 309,62.3 Z"
           style="fill:#999999;fill-opacity:1;fill-rule:evenodd;stroke:none"
           id="path30"
           inkscape:connector-curvature="0" /><path
           d="m 235.3,110 c 17.6,0 31.2,-5.9 31.2,-13.7 0,-7.7 -13.6,-13.6 -31.2,-13.6 -17.7,0 -31.2,5.9 -31.2,13.6 0,7.8 13.5,13.7 31.2,13.7 z m -31.2,0 z m 62.4,-27.3 z"
           style="fill:#999999;fill-opacity:1;fill-rule:evenodd;stroke:none"
           id="path32"
           inkscape:connector-curvature="0" /><path
           d="m 297.6,110 c 22.5,0 39.7,-6.4 39.7,-14.8 0,-8.3 -17.2,-14.7 -39.7,-14.7 -22.5,0 -39.6,6.4 -39.6,14.7 0,8.4 17.1,14.8 39.6,14.8 z m -39.6,0 z m 79.4,-29.6 z"
           style="fill:#999999;fill-opacity:1;fill-rule:evenodd;stroke:none"
           id="path34"
           inkscape:connector-curvature="0" /><path
           d="m 198.4,94.1 c 17.7,0 31.2,-5.9 31.2,-13.6 0,-7.7 -13.5,-13.6 -31.2,-13.6 -17.6,0 -31.2,5.9 -31.2,13.6 0,7.7 13.6,13.6 31.2,13.6 z m -31.2,0 z m 62.4,-27.3 z"
           style="fill:#999999;fill-opacity:1;fill-rule:evenodd;stroke:none"
           id="path36"
           inkscape:connector-curvature="0" /><path
           d="m 294.8,94.1 c 17.7,0 31.2,-5.9 31.2,-13.6 0,-7.7 -13.5,-13.6 -31.2,-13.6 -17.7,0 -31.2,5.9 -31.2,13.6 0,7.7 13.5,13.6 31.2,13.6 z m -31.2,0 z M 326,66.8 Z"
           style="fill:#999999;fill-opacity:1;fill-rule:evenodd;stroke:none"
           id="path38"
           inkscape:connector-curvature="0" /><path
           d="m 226.8,80.5 c 17.6,0 31.2,-5.9 31.2,-13.6 0,-7.7 -13.6,-13.6 -31.2,-13.6 -17.7,0 -31.2,5.9 -31.2,13.6 0,7.7 13.5,13.6 31.2,13.6 z m -31.2,0 z M 258,53.2 Z"
           style="fill:#999999;fill-opacity:1;fill-rule:evenodd;stroke:none"
           id="path40"
           inkscape:connector-curvature="0" /><path
           d="m 266.5,85 c 17.6,0 31.1,-5.9 31.1,-13.6 0,-7.7 -13.5,-13.6 -31.1,-13.6 -17.7,0 -31.2,5.9 -31.2,13.6 0,7.7 13.5,13.6 31.2,13.6 z m -31.2,0 z m 62.4,-27.2 z"
           style="fill:#999999;fill-opacity:1;fill-rule:evenodd;stroke:none"
           id="path42"
           inkscape:connector-curvature="0" /><path
           d="M 222.5,14.6 V 44.8 L 231.1,38 V 7.9 Z m 0,-6.7 z m 8.6,36.9 z"
           style="fill:#000000;fill-opacity:1;fill-rule:evenodd;stroke:none"
           id="path44"
           inkscape:connector-curvature="0" /><g
           id="g46"><path
             d="M 222.5,14.6 V 44.8 L 231.1,38 V 7.9 Z"
             style="fill:none;stroke:#000000;stroke-width:2.82999992;stroke-linecap:butt;stroke-linejoin:round;stroke-miterlimit:10;stroke-dasharray:none;stroke-opacity:1"
             id="path48"
             inkscape:connector-curvature="0" /></g><g
           id="g50"><path
             d="M 222.5,7.9 Z"
             style="fill:none;stroke:#000000;stroke-width:2.82999992;stroke-linecap:butt;stroke-linejoin:round;stroke-miterlimit:10;stroke-dasharray:none;stroke-opacity:1"
             id="path52"
             inkscape:connector-curvature="0" /></g><g
           id="g54"><path
             d="M 231.1,44.8 Z"
             style="fill:none;stroke:#000000;stroke-width:2.82999992;stroke-linecap:butt;stroke-linejoin:round;stroke-miterlimit:10;stroke-dasharray:none;stroke-opacity:1"
             id="path56"
             inkscape:connector-curvature="0" /></g><path
           d="M 258,14.6 V 44.8 L 235.2,38 V 7.9 Z m 0,-6.7 z m -22.8,36.9 z"
           style="fill:#000000;fill-opacity:1;fill-rule:evenodd;stroke:none"
           id="path58"
           inkscape:connector-curvature="0" /><g
           id="g60"><path
             d="M 258,14.6 V 44.8 L 235.2,38 V 7.9 Z"
             style="fill:none;stroke:#000000;stroke-width:2.82999992;stroke-linecap:butt;stroke-linejoin:round;stroke-miterlimit:10;stroke-dasharray:none;stroke-opacity:1"
             id="path62"
             inkscape:connector-curvature="0" /></g><g
           id="g64"><path
             d="M 258,7.9 Z"
             style="fill:none;stroke:#000000;stroke-width:2.82999992;stroke-linecap:butt;stroke-linejoin:round;stroke-miterlimit:10;stroke-dasharray:none;stroke-opacity:1"
             id="path66"
             inkscape:connector-curvature="0" /></g><g
           id="g68"><path
             d="M 235.2,44.8 Z"
             style="fill:none;stroke:#000000;stroke-width:2.82999992;stroke-linecap:butt;stroke-linejoin:round;stroke-miterlimit:10;stroke-dasharray:none;stroke-opacity:1"
             id="path70"
             inkscape:connector-curvature="0" /></g><path
           d="m 257.2,48.9 -24.1,-7.1 -7.1,5.7 24.1,7.1 z"
           style="fill:#000000;fill-opacity:1;fill-rule:evenodd;stroke:none"
           id="path72"
           inkscape:connector-curvature="0" /><g
           id="g74"><path
             d="m 257.2,48.9 -24.1,-7.1 -7.1,5.7 24.1,7.1 z"
             style="fill:none;stroke:#000000;stroke-width:2.82999992;stroke-linecap:butt;stroke-linejoin:round;stroke-miterlimit:10;stroke-dasharray:none;stroke-opacity:1"
             id="path76"
             inkscape:connector-curvature="0" /></g><g
           id="g78"><path
             d="m 223.2,41.9 7.1,-5.6"
             style="fill:none;stroke:#ffffff;stroke-width:0.84899998;stroke-linecap:round;stroke-linejoin:round;stroke-miterlimit:10;stroke-dasharray:none;stroke-opacity:1"
             id="path80"
             inkscape:connector-curvature="0" /></g><g
           id="g82"><path
             d="m 223.2,39.1 7.1,-5.7"
             style="fill:none;stroke:#ffffff;stroke-width:0.84899998;stroke-linecap:round;stroke-linejoin:round;stroke-miterlimit:10;stroke-dasharray:none;stroke-opacity:1"
             id="path84"
             inkscape:connector-curvature="0" /></g><g
           id="g86"><path
             d="m 223.2,36.3 7.1,-5.7"
             style="fill:none;stroke:#ffffff;stroke-width:0.84899998;stroke-linecap:round;stroke-linejoin:round;stroke-miterlimit:10;stroke-dasharray:none;stroke-opacity:1"
             id="path88"
             inkscape:connector-curvature="0" /></g><path
           d="m 109.1,91.2 v 30.1 l 8.6,-6.7 V 84.4 Z m 0,-6.8 z m 8.6,36.9 z"
           style="fill:#000000;fill-opacity:1;fill-rule:evenodd;stroke:none"
           id="path90"
           inkscape:connector-curvature="0" /><g
           id="g92"><path
             d="m 109.1,91.2 v 30.1 l 8.6,-6.7 V 84.4 Z"
             style="fill:none;stroke:#000000;stroke-width:2.82999992;stroke-linecap:butt;stroke-linejoin:round;stroke-miterlimit:10;stroke-dasharray:none;stroke-opacity:1"
             id="path94"
             inkscape:connector-curvature="0" /></g><g
           id="g96"><path
             d="M 109.1,84.4 Z"
             style="fill:none;stroke:#000000;stroke-width:2.82999992;stroke-linecap:butt;stroke-linejoin:round;stroke-miterlimit:10;stroke-dasharray:none;stroke-opacity:1"
             id="path98"
             inkscape:connector-curvature="0" /></g><g
           id="g100"><path
             d="M 117.7,121.3 Z"
             style="fill:none;stroke:#000000;stroke-width:2.82999992;stroke-linecap:butt;stroke-linejoin:round;stroke-miterlimit:10;stroke-dasharray:none;stroke-opacity:1"
             id="path102"
             inkscape:connector-curvature="0" /></g><path
           d="m 144.6,91.2 v 30.1 l -22.7,-6.7 V 84.4 Z m 0,-6.8 z m -22.7,36.9 z"
           style="fill:#000000;fill-opacity:1;fill-rule:evenodd;stroke:none"
           id="path104"
           inkscape:connector-curvature="0" /><g
           id="g106"><path
             d="m 144.6,91.2 v 30.1 l -22.7,-6.7 V 84.4 Z"
             style="fill:none;stroke:#000000;stroke-width:2.82999992;stroke-linecap:butt;stroke-linejoin:round;stroke-miterlimit:10;stroke-dasharray:none;stroke-opacity:1"
             id="path108"
             inkscape:connector-curvature="0" /></g><g
           id="g110"><path
             d="M 144.6,84.4 Z"
             style="fill:none;stroke:#000000;stroke-width:2.82999992;stroke-linecap:butt;stroke-linejoin:round;stroke-miterlimit:10;stroke-dasharray:none;stroke-opacity:1"
             id="path112"
             inkscape:connector-curvature="0" /></g><g
           id="g114"><path
             d="M 121.9,121.3 Z"
             style="fill:none;stroke:#000000;stroke-width:2.82999992;stroke-linecap:butt;stroke-linejoin:round;stroke-miterlimit:10;stroke-dasharray:none;stroke-opacity:1"
             id="path116"
             inkscape:connector-curvature="0" /></g><path
           d="m 143.8,125.4 -24.1,-7.1 -7.1,5.7 24.1,7.1 z"
           style="fill:#000000;fill-opacity:1;fill-rule:evenodd;stroke:none"
           id="path118"
           inkscape:connector-curvature="0" /><g
           id="g120"><path
             d="m 143.8,125.4 -24.1,-7.1 -7.1,5.7 24.1,7.1 z"
             style="fill:none;stroke:#000000;stroke-width:2.82999992;stroke-linecap:butt;stroke-linejoin:round;stroke-miterlimit:10;stroke-dasharray:none;stroke-opacity:1"
             id="path122"
             inkscape:connector-curvature="0" /></g><g
           id="g124"><path
             d="m 109.8,118.5 7.1,-5.7"
             style="fill:none;stroke:#ffffff;stroke-width:0.84899998;stroke-linecap:round;stroke-linejoin:round;stroke-miterlimit:10;stroke-dasharray:none;stroke-opacity:1"
             id="path126"
             inkscape:connector-curvature="0" /></g><g
           id="g128"><path
             d="m 109.8,115.6 7.1,-5.6"
             style="fill:none;stroke:#ffffff;stroke-width:0.84899998;stroke-linecap:round;stroke-linejoin:round;stroke-miterlimit:10;stroke-dasharray:none;stroke-opacity:1"
             id="path130"
             inkscape:connector-curvature="0" /></g><g
           id="g132"><path
             d="m 109.8,112.8 7.1,-5.7"
             style="fill:none;stroke:#ffffff;stroke-width:0.84899998;stroke-linecap:round;stroke-linejoin:round;stroke-miterlimit:10;stroke-dasharray:none;stroke-opacity:1"
             id="path134"
             inkscape:connector-curvature="0" /></g><path
           d="m 351.5,87 v 30.2 l 8.5,-6.8 V 80.3 Z m 0,-6.7 z m 8.5,36.9 z"
           style="fill:#000000;fill-opacity:1;fill-rule:evenodd;stroke:none"
           id="path136"
           inkscape:connector-curvature="0" /><g
           id="g138"><path
             d="m 351.5,87 v 30.2 l 8.5,-6.8 V 80.3 Z"
             style="fill:none;stroke:#000000;stroke-width:2.82999992;stroke-linecap:butt;stroke-linejoin:round;stroke-miterlimit:10;stroke-dasharray:none;stroke-opacity:1"
             id="path140"
             inkscape:connector-curvature="0" /></g><g
           id="g142"><path
             d="M 351.5,80.3 Z"
             style="fill:none;stroke:#000000;stroke-width:2.82999992;stroke-linecap:butt;stroke-linejoin:round;stroke-miterlimit:10;stroke-dasharray:none;stroke-opacity:1"
             id="path144"
             inkscape:connector-curvature="0" /></g><g
           id="g146"><path
             d="M 360,117.2 Z"
             style="fill:none;stroke:#000000;stroke-width:2.82999992;stroke-linecap:butt;stroke-linejoin:round;stroke-miterlimit:10;stroke-dasharray:none;stroke-opacity:1"
             id="path148"
             inkscape:connector-curvature="0" /></g><path
           d="m 386.9,87 v 30.2 l -22.7,-6.8 V 80.3 Z m 0,-6.7 z m -22.7,36.9 z"
           style="fill:#000000;fill-opacity:1;fill-rule:evenodd;stroke:none"
           id="path150"
           inkscape:connector-curvature="0" /><g
           id="g152"><path
             d="m 386.9,87 v 30.2 l -22.7,-6.8 V 80.3 Z"
             style="fill:none;stroke:#000000;stroke-width:2.82999992;stroke-linecap:butt;stroke-linejoin:round;stroke-miterlimit:10;stroke-dasharray:none;stroke-opacity:1"
             id="path154"
             inkscape:connector-curvature="0" /></g><g
           id="g156"><path
             d="M 386.9,80.3 Z"
             style="fill:none;stroke:#000000;stroke-width:2.82999992;stroke-linecap:butt;stroke-linejoin:round;stroke-miterlimit:10;stroke-dasharray:none;stroke-opacity:1"
             id="path158"
             inkscape:connector-curvature="0" /></g><g
           id="g160"><path
             d="M 364.2,117.2 Z"
             style="fill:none;stroke:#000000;stroke-width:2.82999992;stroke-linecap:butt;stroke-linejoin:round;stroke-miterlimit:10;stroke-dasharray:none;stroke-opacity:1"
             id="path162"
             inkscape:connector-curvature="0" /></g><path
           d="m 386.2,121.3 -24.1,-7.1 -7.1,5.7 24.1,7.1 z"
           style="fill:#000000;fill-opacity:1;fill-rule:evenodd;stroke:none"
           id="path164"
           inkscape:connector-curvature="0" /><g
           id="g166"><path
             d="m 386.2,121.3 -24.1,-7.1 -7.1,5.7 24.1,7.1 z"
             style="fill:none;stroke:#000000;stroke-width:2.82999992;stroke-linecap:butt;stroke-linejoin:round;stroke-miterlimit:10;stroke-dasharray:none;stroke-opacity:1"
             id="path168"
             inkscape:connector-curvature="0" /></g><g
           id="g170"><path
             d="m 352.2,114.3 7.1,-5.7"
             style="fill:none;stroke:#ffffff;stroke-width:0.84899998;stroke-linecap:round;stroke-linejoin:round;stroke-miterlimit:10;stroke-dasharray:none;stroke-opacity:1"
             id="path172"
             inkscape:connector-curvature="0" /></g><g
           id="g174"><path
             d="m 352.2,111.5 7.1,-5.7"
             style="fill:none;stroke:#ffffff;stroke-width:0.84899998;stroke-linecap:round;stroke-linejoin:round;stroke-miterlimit:10;stroke-dasharray:none;stroke-opacity:1"
             id="path176"
             inkscape:connector-curvature="0" /></g><g
           id="g178"><path
             d="m 352.2,108.6 7.1,-5.6"
             style="fill:none;stroke:#ffffff;stroke-width:0.84899998;stroke-linecap:round;stroke-linejoin:round;stroke-miterlimit:10;stroke-dasharray:none;stroke-opacity:1"
             id="path180"
             inkscape:connector-curvature="0" /></g><g
           id="g182"><path
             d="M 204.3,40.4 150,74.6"
             style="fill:none;stroke:#eb613d;stroke-width:4.24499989;stroke-linecap:butt;stroke-linejoin:round;stroke-miterlimit:10;stroke-dasharray:none;stroke-opacity:1"
             id="path184"
             inkscape:connector-curvature="0" /></g><path
           d="m 201.2,35.1 13.4,-2 0.5,0.1 0.3,0.2 0.1,0.4 -0.1,0.4 -7.6,11.3 -0.1,0.2 h -0.1 l -0.2,0.1 H 207 l -0.2,-0.1 -0.2,-0.2 -5.9,-9.4 -0.1,-0.2 v -0.3 l 0.1,-0.3 0.2,-0.1 0.1,-0.1 z"
           style="fill:#eb613d;fill-opacity:1;fill-rule:evenodd;stroke:none"
           id="path186"
           inkscape:connector-curvature="0" /><path
           d="m 153.1,80 -13.4,1.9 h -0.5 l -0.3,-0.3 -0.1,-0.4 0.2,-0.4 7.6,-11.3 0.1,-0.1 v -0.1 l 0.3,-0.1 h 0.3 l 0.2,0.1 0.2,0.2 5.9,9.4 0.1,0.2 v 0.4 l -0.1,0.2 -0.2,0.1 -0.1,0.1 z"
           style="fill:#eb613d;fill-opacity:1;fill-rule:evenodd;stroke:none"
           id="path188"
           inkscape:connector-curvature="0" /><g
           id="g190"><path
             d="m 230.8,137.4 -67.6,-8.7"
             style="fill:none;stroke:#eb613d;stroke-width:4.24499989;stroke-linecap:butt;stroke-linejoin:round;stroke-miterlimit:10;stroke-dasharray:none;stroke-opacity:1"
             id="path192"
             inkscape:connector-curvature="0" /></g><path
           d="m 231.8,131.4 11.6,7 0.3,0.4 0.1,0.3 -0.2,0.4 -0.4,0.2 -13,3.9 h -0.2 -0.1 l -0.2,-0.1 -0.3,-0.2 -0.1,-0.2 v -0.2 l 1.4,-11.1 0.1,-0.2 0.2,-0.2 0.3,-0.1 h 0.2 0.1 z"
           style="fill:#eb613d;fill-opacity:1;fill-rule:evenodd;stroke:none"
           id="path194"
           inkscape:connector-curvature="0" /><path
           d="m 162.3,134.8 -11.6,-7.1 -0.4,-0.3 -0.1,-0.4 0.2,-0.4 0.4,-0.2 13,-3.9 h 0.2 0.1 l 0.3,0.1 0.2,0.2 0.1,0.2 v 0.2 l -1.4,11.1 -0.1,0.2 -0.2,0.3 h -0.2 -0.3 -0.1 z"
           style="fill:#eb613d;fill-opacity:1;fill-rule:evenodd;stroke:none"
           id="path196"
           inkscape:connector-curvature="0" /><g
           id="g198"><path
             d="M 275.1,36.9 340,72.5"
             style="fill:none;stroke:#eb613d;stroke-width:4.24499989;stroke-linecap:butt;stroke-linejoin:round;stroke-miterlimit:10;stroke-dasharray:none;stroke-opacity:1"
             id="path200"
             inkscape:connector-curvature="0" /></g><path
           d="M 272,42.2 263.8,31.4 263.6,31 v -0.4 l 0.3,-0.3 0.4,-0.1 13.6,1.2 h 0.2 l 0.1,0.1 0.2,0.1 0.1,0.3 0.1,0.2 -0.1,0.3 -5.4,9.7 -0.1,0.2 -0.3,0.2 h -0.3 l -0.2,-0.1 -0.1,-0.1 z"
           style="fill:#eb613d;fill-opacity:1;fill-rule:evenodd;stroke:none"
           id="path202"
           inkscape:connector-curvature="0" /><path
           d="m 343.1,67.1 8.3,10.8 0.2,0.4 -0.1,0.4 -0.3,0.3 -0.4,0.1 L 337.2,78 337,77.9 h -0.1 l -0.2,-0.2 -0.1,-0.2 -0.1,-0.3 0.1,-0.2 5.4,-9.8 0.1,-0.2 0.3,-0.1 h 0.3 l 0.2,0.1 h 0.1 z"
           style="fill:#eb613d;fill-opacity:1;fill-rule:evenodd;stroke:none"
           id="path204"
           inkscape:connector-curvature="0" /><path
           d="M 57.6,26.4 55.2,24.1 V 12.4 h 4.7 v 11.7 z"
           style="fill:#000000;fill-opacity:1;fill-rule:evenodd;stroke:none"
           id="path206"
           inkscape:connector-curvature="0" /><path
           d="m 57.5,28.8 c -0.6,0 -1.2,0.1 -1.8,0.5 -0.6,0.3 -1,0.7 -1.4,1.3 -0.3,0.6 -0.5,1.2 -0.5,1.9 0,0.7 0.2,1.3 0.5,1.9 0.4,0.6 0.8,1 1.4,1.3 0.6,0.4 1.2,0.6 1.8,0.6 0.7,0 1.3,-0.2 1.9,-0.6 0.6,-0.3 1,-0.7 1.4,-1.3 0.3,-0.6 0.5,-1.2 0.5,-1.9 0,-0.7 -0.2,-1.3 -0.5,-1.9 -0.4,-0.6 -0.8,-1 -1.4,-1.3 -0.6,-0.4 -1.2,-0.5 -1.9,-0.5 z"
           style="fill:#000000;fill-opacity:1;fill-rule:evenodd;stroke:none"
           id="path208"
           inkscape:connector-curvature="0" /><g
           id="g210"><path
             d="m 57.5,28.8 c -0.6,0 -1.2,0.1 -1.8,0.5 -0.6,0.3 -1,0.7 -1.4,1.3 -0.3,0.6 -0.5,1.2 -0.5,1.9 0,0.7 0.2,1.3 0.5,1.9 0.4,0.6 0.8,1 1.4,1.3 0.6,0.4 1.2,0.6 1.8,0.6 0.7,0 1.3,-0.2 1.9,-0.6 0.6,-0.3 1,-0.7 1.4,-1.3 0.3,-0.6 0.5,-1.2 0.5,-1.9 0,-0.7 -0.2,-1.3 -0.5,-1.9 -0.4,-0.6 -0.8,-1 -1.4,-1.3 -0.6,-0.4 -1.2,-0.5 -1.9,-0.5 z"
             style="fill:none;stroke:#000000;stroke-width:2.26398993;stroke-linecap:butt;stroke-linejoin:round;stroke-miterlimit:10;stroke-dasharray:none;stroke-opacity:1"
             id="path212"
             inkscape:connector-curvature="0" /></g><g
           id="g214"><path
             d="M 57.5,26.4 48.2,17.1"
             style="fill:none;stroke:#000000;stroke-width:2.26398993;stroke-linecap:butt;stroke-linejoin:round;stroke-miterlimit:10;stroke-dasharray:none;stroke-opacity:1"
             id="path216"
             inkscape:connector-curvature="0" /></g><g
           id="g218"><path
             d="m 66.9,17.1 -9.4,9.3"
             style="fill:none;stroke:#000000;stroke-width:2.26398993;stroke-linecap:butt;stroke-linejoin:round;stroke-miterlimit:10;stroke-dasharray:none;stroke-opacity:1"
             id="path220"
             inkscape:connector-curvature="0" /></g><g
           id="g222"><path
             d="m 57.5,28.8 v -14"
             style="fill:none;stroke:#000000;stroke-width:2.26398993;stroke-linecap:butt;stroke-linejoin:round;stroke-miterlimit:10;stroke-dasharray:none;stroke-opacity:1"
             id="path224"
             inkscape:connector-curvature="0" /></g><g
           id="g226"><path
             d="M 57.6,14.8 50.5,3.1"
             style="fill:none;stroke:#000000;stroke-width:2.26398993;stroke-linecap:butt;stroke-linejoin:round;stroke-miterlimit:10;stroke-dasharray:none;stroke-opacity:1"
             id="path228"
             inkscape:connector-curvature="0" /></g><g
           id="g230"><path
             d="M 64.6,3.1 57.5,14.8"
             style="fill:none;stroke:#000000;stroke-width:2.26398993;stroke-linecap:butt;stroke-linejoin:round;stroke-miterlimit:10;stroke-dasharray:none;stroke-opacity:1"
             id="path232"
             inkscape:connector-curvature="0" /></g><g
           id="g234"><path
             d="m 68,37.1 35.8,33.6"
             style="fill:none;stroke:#33cc66;stroke-width:4.24499989;stroke-linecap:butt;stroke-linejoin:round;stroke-miterlimit:10;stroke-dasharray:none;stroke-opacity:1"
             id="path236"
             inkscape:connector-curvature="0" /></g><path
           d="m 108.2,66.3 5.3,12.5 0.1,0.4 -0.2,0.4 -0.4,0.2 h -0.4 L 99.7,75.3 99.6,75.2 99.5,75.1 99.4,74.9 99.3,74.6 v -0.2 l 0.1,-0.2 7.6,-8.2 0.3,-0.1 0.2,-0.1 0.3,0.1 0.2,0.1 0.1,0.1 z"
           style="fill:#33cc66;fill-opacity:1;fill-rule:evenodd;stroke:none"
           id="path238"
           inkscape:connector-curvature="0" /><path
           d="m 189.9,113.9 c 17.7,0 31.2,-5.9 31.2,-13.6 0,-7.7 -13.5,-13.6 -31.2,-13.6 -17.6,0 -31.2,5.9 -31.2,13.6 0,7.7 13.6,13.6 31.2,13.6 z m -31.2,0 z m 62.4,-27.2 z"
           style="fill:#ffffff;fill-opacity:1;fill-rule:evenodd;stroke:none"
           id="path240"
           inkscape:connector-curvature="0" /><path
           d="m 245.2,109.4 c 36.2,0 63.8,-8.4 63.8,-19.3 0,-10.9 -27.6,-19.3 -63.8,-19.3 -36.2,0 -63.8,8.4 -63.8,19.3 0,10.9 27.6,19.3 63.8,19.3 z m -63.8,0 z M 309,70.8 Z"
           style="fill:#ffffff;fill-opacity:1;fill-rule:evenodd;stroke:none"
           id="path242"
           inkscape:connector-curvature="0" /><path
           d="m 235.3,118.5 c 17.6,0 31.2,-5.9 31.2,-13.6 0,-7.8 -13.6,-13.7 -31.2,-13.7 -17.7,0 -31.2,5.9 -31.2,13.7 0,7.7 13.5,13.6 31.2,13.6 z m -31.2,0 z m 62.4,-27.3 z"
           style="fill:#ffffff;fill-opacity:1;fill-rule:evenodd;stroke:none"
           id="path244"
           inkscape:connector-curvature="0" /><path
           d="m 297.6,118.5 c 22.5,0 39.7,-6.4 39.7,-14.8 0,-8.3 -17.2,-14.7 -39.7,-14.7 -22.5,0 -39.6,6.4 -39.6,14.7 0,8.4 17.1,14.8 39.6,14.8 z m -39.6,0 z m 79.4,-29.6 z"
           style="fill:#ffffff;fill-opacity:1;fill-rule:evenodd;stroke:none"
           id="path246"
           inkscape:connector-curvature="0" /><path
           d="m 198.4,102.6 c 17.7,0 31.2,-5.9 31.2,-13.6 0,-7.7 -13.5,-13.6 -31.2,-13.6 -17.6,0 -31.2,5.9 -31.2,13.6 0,7.7 13.6,13.6 31.2,13.6 z m -31.2,0 z m 62.4,-27.3 z"
           style="fill:#ffffff;fill-opacity:1;fill-rule:evenodd;stroke:none"
           id="path248"
           inkscape:connector-curvature="0" /><path
           d="m 294.8,102.6 c 17.7,0 31.2,-5.9 31.2,-13.6 0,-7.7 -13.5,-13.6 -31.2,-13.6 -17.7,0 -31.2,5.9 -31.2,13.6 0,7.7 13.5,13.6 31.2,13.6 z m -31.2,0 z M 326,75.3 Z"
           style="fill:#ffffff;fill-opacity:1;fill-rule:evenodd;stroke:none"
           id="path250"
           inkscape:connector-curvature="0" /><path
           d="m 226.8,89 c 17.6,0 31.2,-5.9 31.2,-13.6 0,-7.7 -13.6,-13.6 -31.2,-13.6 -17.7,0 -31.2,5.9 -31.2,13.6 0,7.7 13.5,13.6 31.2,13.6 z m -31.2,0 z M 258,61.7 Z"
           style="fill:#ffffff;fill-opacity:1;fill-rule:evenodd;stroke:none"
           id="path252"
           inkscape:connector-curvature="0" /><path
           d="m 266.5,93.5 c 17.6,0 31.1,-5.9 31.1,-13.6 0,-7.7 -13.5,-13.6 -31.1,-13.6 -17.7,0 -31.2,5.9 -31.2,13.6 0,7.7 13.5,13.6 31.2,13.6 z m -31.2,0 z m 62.4,-27.2 z"
           style="fill:#ffffff;fill-opacity:1;fill-rule:evenodd;stroke:none"
           id="path254"
           inkscape:connector-curvature="0" /><g
           id="g256"><text
             transform="matrix(1,0,0,-1,189.2,96.5)"
             style="font-variant:normal;font-weight:normal;font-size:12px;font-family:'Verana Sans Demi';-inkscape-font-specification:VeranaSansDemiRegular;writing-mode:lr-tb;fill:#000000;fill-opacity:1;fill-rule:nonzero;stroke:none"
             id="text260"><tspan
               x="0 9.3959999 17.087999 25.271999 33.071999 41.172001 49.355999 57.540001 61.439999 65.424004 72.120003 79.811996 85.211998 89.112 96.912003 105.096"
               y="0"
               sodipodi:role="line"
               id="tspan258">Nanopublications</tspan></text>
</g><g
           id="g262"><text
             transform="matrix(1,0,0,-1,192.7,84.5)"
             style="font-variant:normal;font-weight:normal;font-size:12px;font-family:'Verana Sans Demi';-inkscape-font-specification:VeranaSansDemiRegular;writing-mode:lr-tb;fill:#000000;fill-opacity:1;fill-rule:nonzero;stroke:none"
             id="text266"><tspan
               x="0 10.584 14.484 19.884001 28.068001 31.968 38.268002 43.956001 52.139999 58.931999 64.332001 71.82 75.720001 85.008003 93.708 98.099998"
               y="0"
               sodipodi:role="line"
               id="tspan264">with Trusty URIs</tspan></text>
</g><path
           d="M 466.9,29.3 464.5,27 V 15.3 h 4.7 V 27 Z"
           style="fill:#000000;fill-opacity:1;fill-rule:evenodd;stroke:none"
           id="path268"
           inkscape:connector-curvature="0" /><path
           d="m 466.9,31.6 c -0.7,0 -1.3,0.2 -1.9,0.5 -0.6,0.4 -1,0.8 -1.4,1.4 -0.3,0.6 -0.5,1.2 -0.5,1.8 0,0.7 0.2,1.3 0.5,1.9 0.4,0.6 0.8,1 1.4,1.4 0.6,0.3 1.2,0.5 1.9,0.5 0.6,0 1.2,-0.2 1.8,-0.5 0.6,-0.4 1.1,-0.8 1.4,-1.4 0.3,-0.6 0.5,-1.2 0.5,-1.9 0,-0.6 -0.2,-1.2 -0.5,-1.8 -0.3,-0.6 -0.8,-1 -1.4,-1.4 -0.6,-0.3 -1.2,-0.5 -1.8,-0.5 z"
           style="fill:#000000;fill-opacity:1;fill-rule:evenodd;stroke:none"
           id="path270"
           inkscape:connector-curvature="0" /><g
           id="g272"><path
             d="m 466.9,31.6 c -0.7,0 -1.3,0.2 -1.9,0.5 -0.6,0.4 -1,0.8 -1.4,1.4 -0.3,0.6 -0.5,1.2 -0.5,1.8 0,0.7 0.2,1.3 0.5,1.9 0.4,0.6 0.8,1 1.4,1.4 0.6,0.3 1.2,0.5 1.9,0.5 0.6,0 1.2,-0.2 1.8,-0.5 0.6,-0.4 1.1,-0.8 1.4,-1.4 0.3,-0.6 0.5,-1.2 0.5,-1.9 0,-0.6 -0.2,-1.2 -0.5,-1.8 -0.3,-0.6 -0.8,-1 -1.4,-1.4 -0.6,-0.3 -1.2,-0.5 -1.8,-0.5 z"
             style="fill:none;stroke:#000000;stroke-width:2.26398993;stroke-linecap:butt;stroke-linejoin:round;stroke-miterlimit:10;stroke-dasharray:none;stroke-opacity:1"
             id="path274"
             inkscape:connector-curvature="0" /></g><g
           id="g276"><path
             d="m 466.9,29.3 -9.4,-9.4"
             style="fill:none;stroke:#000000;stroke-width:2.26398993;stroke-linecap:butt;stroke-linejoin:round;stroke-miterlimit:10;stroke-dasharray:none;stroke-opacity:1"
             id="path278"
             inkscape:connector-curvature="0" /></g><g
           id="g280"><path
             d="m 476.2,19.9 -9.3,9.4"
             style="fill:none;stroke:#000000;stroke-width:2.26398993;stroke-linecap:butt;stroke-linejoin:round;stroke-miterlimit:10;stroke-dasharray:none;stroke-opacity:1"
             id="path282"
             inkscape:connector-curvature="0" /></g><g
           id="g284"><path
             d="m 466.9,31.6 v -14"
             style="fill:none;stroke:#000000;stroke-width:2.26398993;stroke-linecap:butt;stroke-linejoin:round;stroke-miterlimit:10;stroke-dasharray:none;stroke-opacity:1"
             id="path286"
             inkscape:connector-curvature="0" /></g><g
           id="g288"><path
             d="m 466.9,17.6 -7,-11.7"
             style="fill:none;stroke:#000000;stroke-width:2.26398993;stroke-linecap:butt;stroke-linejoin:round;stroke-miterlimit:10;stroke-dasharray:none;stroke-opacity:1"
             id="path290"
             inkscape:connector-curvature="0" /></g><g
           id="g292"><path
             d="m 473.9,5.9 -7,11.7"
             style="fill:none;stroke:#000000;stroke-width:2.26398993;stroke-linecap:butt;stroke-linejoin:round;stroke-miterlimit:10;stroke-dasharray:none;stroke-opacity:1"
             id="path294"
             inkscape:connector-curvature="0" /></g><g
           id="g296"><path
             d="m 269.3,14.4 165.5,5.3"
             style="fill:none;stroke:#0099ff;stroke-width:4.24499989;stroke-linecap:butt;stroke-linejoin:round;stroke-miterlimit:10;stroke-dasharray:none;stroke-opacity:1"
             id="path298"
             inkscape:connector-curvature="0" /></g><path
           d="m 435.1,13.5 12.3,5.9 0.3,0.3 0.2,0.4 -0.2,0.4 -0.3,0.2 -12.7,5.1 -0.1,0.1 h -0.1 l -0.3,-0.1 -0.2,-0.1 -0.2,-0.2 v -0.3 l 0.4,-11.1 v -0.3 l 0.2,-0.2 0.2,-0.1 0.3,-0.1 h 0.1 z"
           style="fill:#0099ff;fill-opacity:1;fill-rule:evenodd;stroke:none"
           id="path300"
           inkscape:connector-curvature="0" /><path
           d="m 250.9,127.6 v 30.1 l 8.5,-6.7 v -30.2 z m 0,-6.8 z m 8.5,36.9 z"
           style="fill:#000000;fill-opacity:1;fill-rule:evenodd;stroke:none"
           id="path302"
           inkscape:connector-curvature="0" /><g
           id="g304"><path
             d="m 250.9,127.6 v 30.1 l 8.5,-6.7 v -30.2 z"
             style="fill:none;stroke:#000000;stroke-width:2.82999992;stroke-linecap:butt;stroke-linejoin:round;stroke-miterlimit:10;stroke-dasharray:none;stroke-opacity:1"
             id="path306"
             inkscape:connector-curvature="0" /></g><g
           id="g308"><path
             d="M 250.9,120.8 Z"
             style="fill:none;stroke:#000000;stroke-width:2.82999992;stroke-linecap:butt;stroke-linejoin:round;stroke-miterlimit:10;stroke-dasharray:none;stroke-opacity:1"
             id="path310"
             inkscape:connector-curvature="0" /></g><g
           id="g312"><path
             d="M 259.4,157.7 Z"
             style="fill:none;stroke:#000000;stroke-width:2.82999992;stroke-linecap:butt;stroke-linejoin:round;stroke-miterlimit:10;stroke-dasharray:none;stroke-opacity:1"
             id="path314"
             inkscape:connector-curvature="0" /></g><path
           d="m 286.3,127.6 v 30.1 L 263.6,151 v -30.2 z m 0,-6.8 z m -22.7,36.9 z"
           style="fill:#000000;fill-opacity:1;fill-rule:evenodd;stroke:none"
           id="path316"
           inkscape:connector-curvature="0" /><g
           id="g318"><path
             d="m 286.3,127.6 v 30.1 L 263.6,151 v -30.2 z"
             style="fill:none;stroke:#000000;stroke-width:2.82999992;stroke-linecap:butt;stroke-linejoin:round;stroke-miterlimit:10;stroke-dasharray:none;stroke-opacity:1"
             id="path320"
             inkscape:connector-curvature="0" /></g><g
           id="g322"><path
             d="M 286.3,120.8 Z"
             style="fill:none;stroke:#000000;stroke-width:2.82999992;stroke-linecap:butt;stroke-linejoin:round;stroke-miterlimit:10;stroke-dasharray:none;stroke-opacity:1"
             id="path324"
             inkscape:connector-curvature="0" /></g><g
           id="g326"><path
             d="M 263.6,157.7 Z"
             style="fill:none;stroke:#000000;stroke-width:2.82999992;stroke-linecap:butt;stroke-linejoin:round;stroke-miterlimit:10;stroke-dasharray:none;stroke-opacity:1"
             id="path328"
             inkscape:connector-curvature="0" /></g><path
           d="m 285.6,161.8 -24.1,-7.1 -7.1,5.7 24.1,7.1 z"
           style="fill:#000000;fill-opacity:1;fill-rule:evenodd;stroke:none"
           id="path330"
           inkscape:connector-curvature="0" /><g
           id="g332"><path
             d="m 285.6,161.8 -24.1,-7.1 -7.1,5.7 24.1,7.1 z"
             style="fill:none;stroke:#000000;stroke-width:2.82999992;stroke-linecap:butt;stroke-linejoin:round;stroke-miterlimit:10;stroke-dasharray:none;stroke-opacity:1"
             id="path334"
             inkscape:connector-curvature="0" /></g><g
           id="g336"><path
             d="m 251.6,154.9 7.1,-5.7"
             style="fill:none;stroke:#ffffff;stroke-width:0.84899998;stroke-linecap:round;stroke-linejoin:round;stroke-miterlimit:10;stroke-dasharray:none;stroke-opacity:1"
             id="path338"
             inkscape:connector-curvature="0" /></g><g
           id="g340"><path
             d="m 251.6,152 7.1,-5.7"
             style="fill:none;stroke:#ffffff;stroke-width:0.84899998;stroke-linecap:round;stroke-linejoin:round;stroke-miterlimit:10;stroke-dasharray:none;stroke-opacity:1"
             id="path342"
             inkscape:connector-curvature="0" /></g><g
           id="g344"><path
             d="m 251.6,149.2 7.1,-5.7"
             style="fill:none;stroke:#ffffff;stroke-width:0.84899998;stroke-linecap:round;stroke-linejoin:round;stroke-miterlimit:10;stroke-dasharray:none;stroke-opacity:1"
             id="path346"
             inkscape:connector-curvature="0" /></g><g
           id="g348"><path
             d="m 304.4,143.7 37.5,-11.9"
             style="fill:none;stroke:#eb613d;stroke-width:4.24499989;stroke-linecap:butt;stroke-linejoin:round;stroke-miterlimit:10;stroke-dasharray:none;stroke-opacity:1"
             id="path350"
             inkscape:connector-curvature="0" /></g><path
           d="m 306.2,149.6 -13.6,-1.5 -0.4,-0.1 -0.2,-0.3 v -0.5 l 0.2,-0.3 10.2,-9.1 0.1,-0.1 h 0.2 0.2 l 0.3,0.1 0.2,0.1 0.1,0.2 3.4,10.6 v 0.3 0.3 l -0.2,0.2 -0.3,0.1 h -0.1 z"
           style="fill:#eb613d;fill-opacity:1;fill-rule:evenodd;stroke:none"
           id="path352"
           inkscape:connector-curvature="0" /><path
           d="m 340.1,125.8 13.6,1.5 0.4,0.2 0.2,0.3 v 0.4 l -0.2,0.4 -10.2,9 -0.1,0.1 -0.2,0.1 h -0.2 l -0.3,-0.1 -0.2,-0.1 -0.1,-0.3 -3.4,-10.6 v -0.2 -0.3 l 0.2,-0.2 0.3,-0.1 0.1,-0.1 z"
           style="fill:#eb613d;fill-opacity:1;fill-rule:evenodd;stroke:none"
           id="path354"
           inkscape:connector-curvature="0" /><g
           id="g356"><path
             d="m 379.8,76.8 62.4,-36"
             style="fill:none;stroke:#0099ff;stroke-width:4.24499989;stroke-linecap:butt;stroke-linejoin:round;stroke-miterlimit:10;stroke-dasharray:none;stroke-opacity:1"
             id="path358"
             inkscape:connector-curvature="0" /></g><path
           d="M 439.3,35.4 452.8,34 h 0.4 l 0.3,0.2 0.1,0.5 -0.1,0.4 -8.1,11 -0.1,0.1 -0.1,0.1 h -0.2 -0.3 l -0.3,-0.1 -0.1,-0.2 -5.6,-9.6 -0.1,-0.2 v -0.3 l 0.2,-0.3 0.2,-0.1 0.1,-0.1 z"
           style="fill:#0099ff;fill-opacity:1;fill-rule:evenodd;stroke:none"
           id="path360"
           inkscape:connector-curvature="0" /><g
           id="g362"><text
             transform="matrix(1,0,0,-1,3.5,53.5)"
             style="font-variant:normal;font-weight:normal;font-size:12px;font-family:'Verana Sans Demi';-inkscape-font-specification:VeranaSansDemiRegular;writing-mode:lr-tb;fill:#33cc66;fill-opacity:1;fill-rule:nonzero;stroke:none"
             id="text366"><tspan
               x="0 8.3879995 16.572001 24.672001 28.656 32.556 39.348 46.944 52.428001 56.327999 64.127998"
               y="0"
               sodipodi:role="line"
               id="tspan364">Publication</tspan></text>
</g><text
           transform="matrix(1,0,0,-1,367.9,28)"
           style="font-variant:normal;font-weight:normal;font-size:12px;font-family:'Verana Sans Demi';-inkscape-font-specification:VeranaSansDemiRegular;writing-mode:lr-tb;fill:#0099ff;fill-opacity:1;fill-rule:nonzero;stroke:none"
           id="text370"><tspan
             x="0 8.4960003 16.200001 21.6 27.204 31.188 38.891998 46.296001 53.987999"
             y="0"
             sodipodi:role="line"
             id="tspan368">Retrieval</tspan></text>
<g
           id="g372"><text
             transform="matrix(1,0,0,-1,118.2,155.5)"
             style="font-variant:normal;font-weight:normal;font-size:12px;font-family:'Verana Sans Demi';-inkscape-font-specification:VeranaSansDemiRegular;writing-mode:lr-tb;fill:#eb613d;fill-opacity:1;fill-rule:nonzero;stroke:none"
             id="text376"><tspan
               x="0 8.1960001 13.8 21.6 29.784 37.476002 45.576 53.268002 58.667999 62.652 70.356003 78.540001 82.524002 86.711998"
               y="0"
               sodipodi:role="line"
               id="tspan374">Propagation / </tspan></text>
</g><g
           id="g378"><text
             transform="matrix(1,0,0,-1,131,143.5)"
             style="font-variant:normal;font-weight:normal;font-size:12px;font-family:'Verana Sans Demi';-inkscape-font-specification:VeranaSansDemiRegular;writing-mode:lr-tb;fill:#eb613d;fill-opacity:1;fill-rule:nonzero;stroke:none"
             id="text382"><tspan
               x="0 8.8920002 14.58 21.275999 29.375999 33.360001 40.764 44.748001 52.931999"
               y="0"
               sodipodi:role="line"
               id="tspan380">Archiving</tspan></text>
</g></g></g></g></svg>