<?xml version="1.0" encoding="UTF-8"?>
<!DOCTYPE svg PUBLIC "-//W3C//DTD SVG 1.1//EN" "http://www.w3.org/Graphics/SVG/1.1/DTD/svg11.dtd">
<svg version="1.2" width="220mm" height="150mm" viewBox="0 0 22000 15000" preserveAspectRatio="xMidYMid" fill-rule="evenodd" stroke-width="28.222" stroke-linejoin="round" xmlns="http://www.w3.org/2000/svg" xmlns:ooo="http://xml.openoffice.org/svg/export" xmlns:xlink="http://www.w3.org/1999/xlink" xmlns:presentation="http://sun.com/xmlns/staroffice/presentation" xmlns:smil="http://www.w3.org/2001/SMIL20/" xmlns:anim="urn:oasis:names:tc:opendocument:xmlns:animation:1.0" xml:space="preserve">
 <defs class="ClipPathGroup">
  <clipPath id="presentation_clip_path" clipPathUnits="userSpaceOnUse">
   <rect x="0" y="0" width="22000" height="15000"/>
  </clipPath>
  <clipPath id="presentation_clip_path_shrink" clipPathUnits="userSpaceOnUse">
   <rect x="22" y="15" width="21956" height="14970"/>
  </clipPath>
 </defs>
 <defs class="TextShapeIndex">
  <g ooo:slide="id1" ooo:id-list="id3 id4 id5 id6 id7 id8 id9 id10 id11 id12 id13 id14 id15 id16 id17 id18 id19 id20 id21 id22 id23 id24 id25 id26 id27 id28 id29 id30 id31 id32 id33 id34 id35 id36 id37 id38"/>
 </defs>
 <defs class="EmbeddedBulletChars">
  <g id="bullet-char-template(57356)" transform="scale(0.00048828125,-0.00048828125)">
   <path d="M 580,1141 L 1163,571 580,0 -4,571 580,1141 Z"/>
  </g>
  <g id="bullet-char-template(57354)" transform="scale(0.00048828125,-0.00048828125)">
   <path d="M 8,1128 L 1137,1128 1137,0 8,0 8,1128 Z"/>
  </g>
  <g id="bullet-char-template(10146)" transform="scale(0.00048828125,-0.00048828125)">
   <path d="M 174,0 L 602,739 174,1481 1456,739 174,0 Z M 1358,739 L 309,1346 659,739 1358,739 Z"/>
  </g>
  <g id="bullet-char-template(10132)" transform="scale(0.00048828125,-0.00048828125)">
   <path d="M 2015,739 L 1276,0 717,0 1260,543 174,543 174,936 1260,936 717,1481 1274,1481 2015,739 Z"/>
  </g>
  <g id="bullet-char-template(10007)" transform="scale(0.00048828125,-0.00048828125)">
   <path d="M 0,-2 C -7,14 -16,27 -25,37 L 356,567 C 262,823 215,952 215,954 215,979 228,992 255,992 264,992 276,990 289,987 310,991 331,999 354,1012 L 381,999 492,748 772,1049 836,1024 860,1049 C 881,1039 901,1025 922,1006 886,937 835,863 770,784 769,783 710,716 594,584 L 774,223 C 774,196 753,168 711,139 L 727,119 C 717,90 699,76 672,76 641,76 570,178 457,381 L 164,-76 C 142,-110 111,-127 72,-127 30,-127 9,-110 8,-76 1,-67 -2,-52 -2,-32 -2,-23 -1,-13 0,-2 Z"/>
  </g>
  <g id="bullet-char-template(10004)" transform="scale(0.00048828125,-0.00048828125)">
   <path d="M 285,-33 C 182,-33 111,30 74,156 52,228 41,333 41,471 41,549 55,616 82,672 116,743 169,778 240,778 293,778 328,747 346,684 L 369,508 C 377,444 397,411 428,410 L 1163,1116 C 1174,1127 1196,1133 1229,1133 1271,1133 1292,1118 1292,1087 L 1292,965 C 1292,929 1282,901 1262,881 L 442,47 C 390,-6 338,-33 285,-33 Z"/>
  </g>
  <g id="bullet-char-template(9679)" transform="scale(0.00048828125,-0.00048828125)">
   <path d="M 813,0 C 632,0 489,54 383,161 276,268 223,411 223,592 223,773 276,916 383,1023 489,1130 632,1184 813,1184 992,1184 1136,1130 1245,1023 1353,916 1407,772 1407,592 1407,412 1353,268 1245,161 1136,54 992,0 813,0 Z"/>
  </g>
  <g id="bullet-char-template(8226)" transform="scale(0.00048828125,-0.00048828125)">
   <path d="M 346,457 C 273,457 209,483 155,535 101,586 74,649 74,723 74,796 101,859 155,911 209,963 273,989 346,989 419,989 480,963 531,910 582,859 608,796 608,723 608,648 583,586 532,535 482,483 420,457 346,457 Z"/>
  </g>
  <g id="bullet-char-template(8211)" transform="scale(0.00048828125,-0.00048828125)">
   <path d="M -4,459 L 1135,459 1135,606 -4,606 -4,459 Z"/>
  </g>
  <g id="bullet-char-template(61548)" transform="scale(0.00048828125,-0.00048828125)">
   <path d="M 173,740 C 173,903 231,1043 346,1159 462,1274 601,1332 765,1332 928,1332 1067,1274 1183,1159 1299,1043 1357,903 1357,740 1357,577 1299,437 1183,322 1067,206 928,148 765,148 601,148 462,206 346,322 231,437 173,577 173,740 Z"/>
  </g>
 </defs>
 <defs class="TextEmbeddedBitmaps"/>
 <g>
  <g id="id2" class="Master_Slide">
   <g id="bg-id2" class="Background"/>
   <g id="bo-id2" class="BackgroundObjects"/>
  </g>
 </g>
 <g class="SlideGroup">
  <g>
   <g id="container-id1">
    <g id="id1" class="Slide" clip-path="url(#presentation_clip_path)">
     <g class="Page">
      <g class="Group">
       <g class="com.sun.star.drawing.CustomShape">
        <g id="id3">
         <rect class="BoundingBox" stroke="none" fill="none" x="225" y="10225" width="4552" height="4552"/>
         <path fill="rgb(255,255,255)" stroke="none" d="M 250,10779 C 250,10514 514,10250 779,10250 L 4221,10250 C 4486,10250 4751,10514 4751,10779 L 4751,14221 C 4751,14486 4486,14751 4221,14751 L 779,14751 C 514,14751 250,14486 250,14221 L 250,10779 Z M 250,10250 L 250,10250 Z M 4751,14751 L 4751,14751 Z"/>
         <path fill="none" stroke="rgb(0,0,0)" stroke-width="50" stroke-linejoin="round" d="M 250,10779 C 250,10514 514,10250 779,10250 L 4221,10250 C 4486,10250 4751,10514 4751,10779 L 4751,14221 C 4751,14486 4486,14751 4221,14751 L 779,14751 C 514,14751 250,14486 250,14221 L 250,10779 Z"/>
        </g>
       </g>
       <g class="com.sun.star.drawing.CustomShape">
        <g id="id4">
         <rect class="BoundingBox" stroke="none" fill="none" x="490" y="10990" width="4023" height="1322"/>
         <path fill="rgb(153,204,255)" stroke="none" d="M 500,11000 L 4500,11000 4500,12301 500,12301 500,11000 500,11000 Z M 500,11000 L 500,11000 Z M 4501,12301 L 4501,12301 Z"/>
         <path fill="none" stroke="rgb(0,0,0)" stroke-width="20" stroke-linejoin="round" d="M 500,11000 L 4500,11000 4500,12301 500,12301 500,11000 500,11000 Z"/>
        </g>
       </g>
       <g class="com.sun.star.drawing.CustomShape">
        <g id="id5">
         <rect class="BoundingBox" stroke="none" fill="none" x="490" y="12565" width="4023" height="773"/>
         <path fill="rgb(235,97,61)" stroke="none" d="M 500,12575 L 4500,12575 4500,13326 500,13326 500,12575 500,12575 Z M 500,12575 L 500,12575 Z M 4501,13326 L 4501,13326 Z"/>
         <path fill="none" stroke="rgb(0,0,0)" stroke-width="20" stroke-linejoin="round" d="M 500,12575 L 4500,12575 4500,13326 500,13326 500,12575 500,12575 Z"/>
        </g>
       </g>
       <g class="com.sun.star.drawing.CustomShape">
        <g id="id6">
         <rect class="BoundingBox" stroke="none" fill="none" x="490" y="13565" width="4023" height="773"/>
         <path fill="rgb(255,255,102)" stroke="none" d="M 500,13575 L 4500,13575 4500,14326 500,14326 500,13575 500,13575 Z M 500,13575 L 500,13575 Z M 4501,14326 L 4501,14326 Z"/>
         <path fill="none" stroke="rgb(0,0,0)" stroke-width="20" stroke-linejoin="round" d="M 500,13575 L 4500,13575 4500,14326 500,14326 500,13575 500,13575 Z"/>
        </g>
       </g>
       <g class="com.sun.star.drawing.LineShape">
        <g id="id7">
         <rect class="BoundingBox" stroke="none" fill="none" x="2425" y="12100" width="151" height="501"/>
         <path fill="none" stroke="rgb(0,0,0)" stroke-width="50" stroke-linejoin="round" d="M 2500,12575 L 2500,12240"/>
         <path fill="rgb(0,0,0)" stroke="none" d="M 2486,12248 L 2473,12244 2459,12238 2447,12228 2437,12216 2431,12202 2427,12189 2425,12175 2427,12161 2431,12147 2437,12134 2447,12122 2459,12112 2473,12106 2486,12101 2500,12100 2514,12101 2528,12106 2541,12112 2553,12122 2563,12134 2569,12147 2573,12161 2575,12175 2573,12189 2569,12202 2563,12216 2553,12228 2541,12238 2528,12244 2514,12248 2500,12250 2486,12248 Z"/>
        </g>
       </g>
       <g class="com.sun.star.drawing.LineShape">
        <g id="id8">
         <rect class="BoundingBox" stroke="none" fill="none" x="2425" y="14300" width="151" height="326"/>
         <path fill="none" stroke="rgb(0,0,0)" stroke-width="50" stroke-linejoin="round" d="M 2500,14325 L 2500,14485"/>
         <path fill="rgb(0,0,0)" stroke="none" d="M 2514,14477 L 2527,14481 2541,14487 2553,14497 2563,14509 2569,14523 2573,14536 2575,14550 2573,14564 2569,14578 2563,14591 2553,14603 2541,14613 2527,14619 2514,14624 2500,14625 2486,14624 2472,14619 2459,14613 2447,14603 2437,14591 2431,14578 2427,14564 2425,14550 2427,14536 2431,14523 2437,14509 2447,14497 2459,14487 2472,14481 2486,14477 2500,14475 2514,14477 Z"/>
        </g>
       </g>
      </g>
      <g class="Group">
       <g class="com.sun.star.drawing.LineShape">
        <g id="id9">
         <rect class="BoundingBox" stroke="none" fill="none" x="1875" y="9725" width="1251" height="251"/>
         <path fill="none" stroke="rgb(0,0,0)" stroke-width="250" stroke-linejoin="round" d="M 2000,9850 L 3000,9850"/>
        </g>
       </g>
       <g class="com.sun.star.drawing.LineShape">
        <g id="id10">
         <rect class="BoundingBox" stroke="none" fill="none" x="2375" y="9725" width="251" height="1061"/>
         <path fill="none" stroke="rgb(0,0,0)" stroke-width="250" stroke-linejoin="round" d="M 2500,9850 L 2500,10660"/>
        </g>
       </g>
       <g class="com.sun.star.drawing.PolyLineShape">
        <g id="id11">
         <rect class="BoundingBox" stroke="none" fill="none" x="2318" y="9824" width="365" height="208"/>
         <path fill="none" stroke="rgb(255,255,255)" stroke-width="50" stroke-linejoin="round" d="M 2344,10006 L 2500,9850 2657,10006"/>
        </g>
       </g>
      </g>
      <g class="Group">
       <g class="com.sun.star.drawing.CustomShape">
        <g id="id12">
         <rect class="BoundingBox" stroke="none" fill="none" x="6425" y="7725" width="4552" height="4552"/>
         <path fill="rgb(255,255,255)" stroke="none" d="M 6450,8279 C 6450,8014 6714,7750 6979,7750 L 10421,7750 C 10686,7750 10951,8014 10951,8279 L 10951,11721 C 10951,11986 10686,12251 10421,12251 L 6979,12251 C 6714,12251 6450,11986 6450,11721 L 6450,8279 Z M 6450,7750 L 6450,7750 Z M 10951,12251 L 10951,12251 Z"/>
         <path fill="none" stroke="rgb(0,0,0)" stroke-width="50" stroke-linejoin="round" d="M 6450,8279 C 6450,8014 6714,7750 6979,7750 L 10421,7750 C 10686,7750 10951,8014 10951,8279 L 10951,11721 C 10951,11986 10686,12251 10421,12251 L 6979,12251 C 6714,12251 6450,11986 6450,11721 L 6450,8279 Z"/>
        </g>
       </g>
       <g class="com.sun.star.drawing.CustomShape">
        <g id="id13">
         <rect class="BoundingBox" stroke="none" fill="none" x="6690" y="8490" width="4022" height="1322"/>
         <path fill="rgb(153,204,255)" stroke="none" d="M 6700,8500 L 10700,8500 10700,9801 6700,9801 6700,8500 6700,8500 Z M 6700,8500 L 6700,8500 Z M 10701,9801 L 10701,9801 Z"/>
         <path fill="none" stroke="rgb(0,0,0)" stroke-width="20" stroke-linejoin="round" d="M 6700,8500 L 10700,8500 10700,9801 6700,9801 6700,8500 6700,8500 Z"/>
        </g>
       </g>
       <g class="com.sun.star.drawing.CustomShape">
        <g id="id14">
         <rect class="BoundingBox" stroke="none" fill="none" x="6690" y="10065" width="4022" height="772"/>
         <path fill="rgb(235,97,61)" stroke="none" d="M 6700,10075 L 10700,10075 10700,10826 6700,10826 6700,10075 6700,10075 Z M 6700,10075 L 6700,10075 Z M 10701,10826 L 10701,10826 Z"/>
         <path fill="none" stroke="rgb(0,0,0)" stroke-width="20" stroke-linejoin="round" d="M 6700,10075 L 10700,10075 10700,10826 6700,10826 6700,10075 6700,10075 Z"/>
        </g>
       </g>
       <g class="com.sun.star.drawing.CustomShape">
        <g id="id15">
         <rect class="BoundingBox" stroke="none" fill="none" x="6690" y="11065" width="4022" height="772"/>
         <path fill="rgb(255,255,102)" stroke="none" d="M 6700,11075 L 10700,11075 10700,11826 6700,11826 6700,11075 6700,11075 Z M 6700,11075 L 6700,11075 Z M 10701,11826 L 10701,11826 Z"/>
         <path fill="none" stroke="rgb(0,0,0)" stroke-width="20" stroke-linejoin="round" d="M 6700,11075 L 10700,11075 10700,11826 6700,11826 6700,11075 6700,11075 Z"/>
        </g>
       </g>
       <g class="com.sun.star.drawing.LineShape">
        <g id="id16">
         <rect class="BoundingBox" stroke="none" fill="none" x="8625" y="9600" width="151" height="501"/>
         <path fill="none" stroke="rgb(0,0,0)" stroke-width="50" stroke-linejoin="round" d="M 8700,10075 L 8700,9740"/>
         <path fill="rgb(0,0,0)" stroke="none" d="M 8686,9748 L 8673,9744 8659,9738 8647,9728 8637,9716 8631,9702 8627,9689 8625,9675 8627,9661 8631,9647 8637,9634 8647,9622 8659,9612 8673,9606 8686,9601 8700,9600 8714,9601 8728,9606 8741,9612 8753,9622 8763,9634 8769,9647 8773,9661 8775,9675 8773,9689 8769,9702 8763,9716 8753,9728 8741,9738 8728,9744 8714,9748 8700,9750 8686,9748 Z"/>
        </g>
       </g>
       <g class="com.sun.star.drawing.LineShape">
        <g id="id17">
         <rect class="BoundingBox" stroke="none" fill="none" x="8625" y="11800" width="151" height="326"/>
         <path fill="none" stroke="rgb(0,0,0)" stroke-width="50" stroke-linejoin="round" d="M 8700,11825 L 8700,11985"/>
         <path fill="rgb(0,0,0)" stroke="none" d="M 8714,11977 L 8727,11981 8741,11987 8753,11997 8763,12009 8769,12023 8773,12036 8775,12050 8773,12064 8769,12078 8763,12091 8753,12103 8741,12113 8727,12119 8714,12124 8700,12125 8686,12124 8672,12119 8659,12113 8647,12103 8637,12091 8631,12078 8627,12064 8625,12050 8627,12036 8631,12023 8637,12009 8647,11997 8659,11987 8672,11981 8686,11977 8700,11975 8714,11977 Z"/>
        </g>
       </g>
      </g>
      <g class="Group">
       <g class="com.sun.star.drawing.LineShape">
        <g id="id18">
         <rect class="BoundingBox" stroke="none" fill="none" x="8075" y="7225" width="1251" height="251"/>
         <path fill="none" stroke="rgb(0,0,0)" stroke-width="250" stroke-linejoin="round" d="M 8200,7350 L 9200,7350"/>
        </g>
       </g>
       <g class="com.sun.star.drawing.LineShape">
        <g id="id19">
         <rect class="BoundingBox" stroke="none" fill="none" x="8575" y="7225" width="251" height="1061"/>
         <path fill="none" stroke="rgb(0,0,0)" stroke-width="250" stroke-linejoin="round" d="M 8700,7350 L 8700,8160"/>
        </g>
       </g>
       <g class="com.sun.star.drawing.PolyLineShape">
        <g id="id20">
         <rect class="BoundingBox" stroke="none" fill="none" x="8519" y="7325" width="364" height="207"/>
         <path fill="none" stroke="rgb(255,255,255)" stroke-width="50" stroke-linejoin="round" d="M 8544,7506 L 8700,7350 8857,7506"/>
        </g>
       </g>
      </g>
      <g class="Group">
       <g class="com.sun.star.drawing.CustomShape">
        <g id="id21">
         <rect class="BoundingBox" stroke="none" fill="none" x="12375" y="4175" width="4552" height="4552"/>
         <path fill="rgb(255,255,255)" stroke="none" d="M 12400,4729 C 12400,4464 12664,4200 12929,4200 L 16371,4200 C 16636,4200 16901,4464 16901,4729 L 16901,8171 C 16901,8436 16636,8701 16371,8701 L 12929,8701 C 12664,8701 12400,8436 12400,8171 L 12400,4729 Z M 12400,4200 L 12400,4200 Z M 16901,8701 L 16901,8701 Z"/>
         <path fill="none" stroke="rgb(0,0,0)" stroke-width="50" stroke-linejoin="round" d="M 12400,4729 C 12400,4464 12664,4200 12929,4200 L 16371,4200 C 16636,4200 16901,4464 16901,4729 L 16901,8171 C 16901,8436 16636,8701 16371,8701 L 12929,8701 C 12664,8701 12400,8436 12400,8171 L 12400,4729 Z"/>
        </g>
       </g>
       <g class="com.sun.star.drawing.CustomShape">
        <g id="id22">
         <rect class="BoundingBox" stroke="none" fill="none" x="12640" y="4940" width="4022" height="1322"/>
         <path fill="rgb(153,204,255)" stroke="none" d="M 12650,4950 L 16650,4950 16650,6251 12650,6251 12650,4950 12650,4950 Z M 12650,4950 L 12650,4950 Z M 16651,6251 L 16651,6251 Z"/>
         <path fill="none" stroke="rgb(0,0,0)" stroke-width="20" stroke-linejoin="round" d="M 12650,4950 L 16650,4950 16650,6251 12650,6251 12650,4950 12650,4950 Z"/>
        </g>
       </g>
       <g class="com.sun.star.drawing.CustomShape">
        <g id="id23">
         <rect class="BoundingBox" stroke="none" fill="none" x="12640" y="6515" width="4022" height="772"/>
         <path fill="rgb(235,97,61)" stroke="none" d="M 12650,6525 L 16650,6525 16650,7276 12650,7276 12650,6525 12650,6525 Z M 12650,6525 L 12650,6525 Z M 16651,7276 L 16651,7276 Z"/>
         <path fill="none" stroke="rgb(0,0,0)" stroke-width="20" stroke-linejoin="round" d="M 12650,6525 L 16650,6525 16650,7276 12650,7276 12650,6525 12650,6525 Z"/>
        </g>
       </g>
       <g class="com.sun.star.drawing.CustomShape">
        <g id="id24">
         <rect class="BoundingBox" stroke="none" fill="none" x="12640" y="7515" width="4022" height="772"/>
         <path fill="rgb(255,255,102)" stroke="none" d="M 12650,7525 L 16650,7525 16650,8276 12650,8276 12650,7525 12650,7525 Z M 12650,7525 L 12650,7525 Z M 16651,8276 L 16651,8276 Z"/>
         <path fill="none" stroke="rgb(0,0,0)" stroke-width="20" stroke-linejoin="round" d="M 12650,7525 L 16650,7525 16650,8276 12650,8276 12650,7525 12650,7525 Z"/>
        </g>
       </g>
       <g class="com.sun.star.drawing.LineShape">
        <g id="id25">
         <rect class="BoundingBox" stroke="none" fill="none" x="14575" y="6050" width="151" height="501"/>
         <path fill="none" stroke="rgb(0,0,0)" stroke-width="50" stroke-linejoin="round" d="M 14650,6525 L 14650,6190"/>
         <path fill="rgb(0,0,0)" stroke="none" d="M 14636,6198 L 14623,6194 14609,6188 14597,6178 14587,6166 14581,6152 14577,6139 14575,6125 14577,6111 14581,6097 14587,6084 14597,6072 14609,6062 14623,6056 14636,6051 14650,6050 14664,6051 14678,6056 14691,6062 14703,6072 14713,6084 14719,6097 14723,6111 14725,6125 14723,6139 14719,6152 14713,6166 14703,6178 14691,6188 14678,6194 14664,6198 14650,6200 14636,6198 Z"/>
        </g>
       </g>
       <g class="com.sun.star.drawing.LineShape">
        <g id="id26">
         <rect class="BoundingBox" stroke="none" fill="none" x="14575" y="8250" width="151" height="326"/>
         <path fill="none" stroke="rgb(0,0,0)" stroke-width="50" stroke-linejoin="round" d="M 14650,8275 L 14650,8435"/>
         <path fill="rgb(0,0,0)" stroke="none" d="M 14664,8427 L 14677,8431 14691,8437 14703,8447 14713,8459 14719,8473 14723,8486 14725,8500 14723,8514 14719,8528 14713,8541 14703,8553 14691,8563 14677,8569 14664,8574 14650,8575 14636,8574 14622,8569 14609,8563 14597,8553 14587,8541 14581,8528 14577,8514 14575,8500 14577,8486 14581,8473 14587,8459 14597,8447 14609,8437 14622,8431 14636,8427 14650,8425 14664,8427 Z"/>
        </g>
       </g>
      </g>
      <g class="Group">
       <g class="com.sun.star.drawing.LineShape">
        <g id="id27">
         <rect class="BoundingBox" stroke="none" fill="none" x="14025" y="3675" width="1251" height="251"/>
         <path fill="none" stroke="rgb(0,0,0)" stroke-width="250" stroke-linejoin="round" d="M 14150,3800 L 15150,3800"/>
        </g>
       </g>
       <g class="com.sun.star.drawing.LineShape">
        <g id="id28">
         <rect class="BoundingBox" stroke="none" fill="none" x="14525" y="3675" width="251" height="1061"/>
         <path fill="none" stroke="rgb(0,0,0)" stroke-width="250" stroke-linejoin="round" d="M 14650,3800 L 14650,4610"/>
        </g>
       </g>
       <g class="com.sun.star.drawing.PolyLineShape">
        <g id="id29">
         <rect class="BoundingBox" stroke="none" fill="none" x="14468" y="3775" width="365" height="207"/>
         <path fill="none" stroke="rgb(255,255,255)" stroke-width="50" stroke-linejoin="round" d="M 14494,3956 L 14650,3800 14807,3956"/>
        </g>
       </g>
      </g>
      <g class="com.sun.star.drawing.LineShape">
       <g id="id30">
        <rect class="BoundingBox" stroke="none" fill="none" x="3150" y="9150" width="4401" height="972"/>
        <path fill="none" stroke="rgb(0,0,0)" stroke-width="100" stroke-linejoin="round" d="M 7500,9200 L 3583,9830"/>
        <path fill="rgb(0,0,0)" stroke="none" d="M 3150,9901 L 3670,10120 3575,9528 3150,9901 Z"/>
       </g>
      </g>
      <g class="com.sun.star.drawing.LineShape">
       <g id="id31">
        <rect class="BoundingBox" stroke="none" fill="none" x="9350" y="6850" width="4501" height="796"/>
        <path fill="none" stroke="rgb(0,0,0)" stroke-width="100" stroke-linejoin="round" d="M 13800,6900 L 9786,7351"/>
        <path fill="rgb(0,0,0)" stroke="none" d="M 9350,7401 L 9859,7645 9792,7048 9350,7401 Z"/>
       </g>
      </g>
      <g class="Group">
       <g class="com.sun.star.drawing.PolyPolygonShape">
        <g id="id32">
         <rect class="BoundingBox" stroke="none" fill="none" x="20806" y="1061" width="341" height="1015"/>
         <path fill="rgb(0,0,0)" stroke="none" d="M 20975,1061 L 20807,1229 20807,2075 21146,2075 21146,1229 20975,1061 Z"/>
        </g>
       </g>
       <g class="com.sun.star.drawing.EllipseShape">
        <g id="id33">
         <rect class="BoundingBox" stroke="none" fill="none" x="20680" y="325" width="591" height="591"/>
         <path fill="rgb(0,0,0)" stroke="none" d="M 20975,890 C 20925,890 20883,879 20840,854 20797,829 20766,798 20741,755 20716,712 20705,670 20705,620 20705,570 20716,528 20741,485 20766,442 20797,411 20840,386 20883,361 20925,350 20975,350 21025,350 21067,361 21110,386 21153,411 21184,442 21209,485 21234,528 21245,570 21245,620 21245,670 21234,712 21209,755 21184,798 21153,829 21110,854 21067,879 21025,890 20975,890 L 20975,890 Z"/>
         <path fill="none" stroke="rgb(0,0,0)" stroke-width="50" stroke-linejoin="round" d="M 20975,890 C 20925,890 20883,879 20840,854 20797,829 20766,798 20741,755 20716,712 20705,670 20705,620 20705,570 20716,528 20741,485 20766,442 20797,411 20840,386 20883,361 20925,350 20975,350 21025,350 21067,361 21110,386 21153,411 21184,442 21209,485 21234,528 21245,570 21245,620 21245,670 21234,712 21209,755 21184,798 21153,829 21110,854 21067,879 21025,890 20975,890 L 20975,890 Z"/>
        </g>
       </g>
       <g class="com.sun.star.drawing.LineShape">
        <g id="id34">
         <rect class="BoundingBox" stroke="none" fill="none" x="20225" y="986" width="826" height="826"/>
         <path fill="none" stroke="rgb(0,0,0)" stroke-width="150" stroke-linejoin="round" d="M 20975,1061 L 20300,1736"/>
        </g>
       </g>
       <g class="com.sun.star.drawing.LineShape">
        <g id="id35">
         <rect class="BoundingBox" stroke="none" fill="none" x="20900" y="986" width="826" height="826"/>
         <path fill="none" stroke="rgb(0,0,0)" stroke-width="150" stroke-linejoin="round" d="M 21650,1736 L 20975,1061"/>
        </g>
       </g>
       <g class="com.sun.star.drawing.LineShape">
        <g id="id36">
         <rect class="BoundingBox" stroke="none" fill="none" x="20900" y="815" width="151" height="1165"/>
         <path fill="none" stroke="rgb(0,0,0)" stroke-width="150" stroke-linejoin="round" d="M 20975,890 L 20975,1904"/>
        </g>
       </g>
       <g class="com.sun.star.drawing.LineShape">
        <g id="id37">
         <rect class="BoundingBox" stroke="none" fill="none" x="20393" y="1829" width="658" height="997"/>
         <path fill="none" stroke="rgb(0,0,0)" stroke-width="150" stroke-linejoin="round" d="M 20975,1904 L 20468,2750"/>
        </g>
       </g>
       <g class="com.sun.star.drawing.LineShape">
        <g id="id38">
         <rect class="BoundingBox" stroke="none" fill="none" x="20900" y="1829" width="658" height="997"/>
         <path fill="none" stroke="rgb(0,0,0)" stroke-width="150" stroke-linejoin="round" d="M 21482,2750 L 20975,1904"/>
        </g>
       </g>
      </g>
     </g>
    </g>
   </g>
  </g>
 </g>
</svg>